<svg xmlns="http://www.w3.org/2000/svg" width="54.459" height="12.955" viewBox="0 0 54.459 12.955">
  <path id="axis-bank-logo-1" d="M7.507,195.13c.775,1.328,1.551,2.64,2.3,3.968-1.223,2.162-2.446,4.341-3.714,6.488-.492.82-.955,1.656-1.447,2.476-1.566.015-3.133.015-4.683,0a2.975,2.975,0,0,1,.149-.313c2.475-4.207,4.951-8.4,7.4-12.619Zm34.01,3.252q1.3,2.417,2.6,4.833c-.3,0-.612-.015-.909,0-.208-.358-.388-.731-.582-1.089-.761-.03-1.536,0-2.3-.015-.179.373-.388.731-.582,1.089h-.895c.865-1.611,1.744-3.222,2.67-4.818M40.7,201.44c.522,0,1.045,0,1.566.015-.268-.492-.492-.985-.775-1.462Q41.073,200.707,40.7,201.44Zm3.908-3.073c1.3,1.134,2.61,2.268,3.893,3.415.03-1.044,0-2.073.03-3.118.283,0,.552.015.835.015-.015,1.6,0,3.207,0,4.8-.85-.716-1.686-1.461-2.521-2.192-.478-.4-.939-.805-1.387-1.238-.015,1.059,0,2.1-.015,3.162H44.6C44.6,201.589,44.589,199.978,44.6,198.367ZM17.038,203.2c.895-1.611,1.775-3.237,2.7-4.833.865,1.611,1.716,3.222,2.6,4.833h-.924q-.289-.538-.552-1.089c-.775-.015-1.536,0-2.312,0-.194.358-.388.731-.6,1.089-.313.015-.612.015-.909,0m1.88-1.76H20.5c-.268-.492-.492-.985-.775-1.461C19.44,200.47,19.186,200.947,18.918,201.44Zm10.948-2.64a2.258,2.258,0,0,1,1.432-.149,1.847,1.847,0,0,1,1,.7c-.223.119-.448.223-.671.344a1,1,0,0,0-1.432-.253.419.419,0,0,0,.045.686,9.3,9.3,0,0,1,1.79.82,1.243,1.243,0,0,1,.015,1.79,2.1,2.1,0,0,1-2.028.448,1.5,1.5,0,0,1-1.089-1.253c.283-.06.567-.1.85-.149a.872.872,0,0,0,.4.716,1.01,1.01,0,0,0,1.283-.238.652.652,0,0,0-.134-.88c-.567-.373-1.313-.4-1.835-.88a.946.946,0,0,1-.283-.955A1.16,1.16,0,0,1,29.866,198.8Zm-7.264-.1a6.827,6.827,0,0,1,.955-.03c.344.507.686,1.015,1.015,1.521.358-.507.7-1.015,1.059-1.506.329-.015.656-.015.985,0-.522.716-1.045,1.432-1.551,2.162.522.805,1.1,1.566,1.626,2.387h-.939c-.4-.567-.79-1.149-1.179-1.716-.4.567-.82,1.134-1.223,1.716h-.939c.552-.805,1.119-1.581,1.7-2.372C23.6,200.127,23.095,199.411,22.6,198.7Zm4.788-.016a7.824,7.824,0,0,1,.835,0v4.534h-.85c.015-1.521,0-3.027.015-4.534Zm8.189-.015a4.841,4.841,0,0,1,2.162.253,1.145,1.145,0,0,1,.194,1.835,1.3,1.3,0,0,1,.835.835,1.181,1.181,0,0,1-.567,1.327,5.976,5.976,0,0,1-2.625.3c-.014-1.505,0-3.026,0-4.548m.836.657v1.3a1.649,1.649,0,0,0,.924-.194.633.633,0,0,0-.045-.955,1.592,1.592,0,0,0-.88-.149m0,1.893v1.327a2.748,2.748,0,0,0,1.253-.149.573.573,0,0,0,.089-.939A1.971,1.971,0,0,0,36.415,201.215Zm13.932-2.551h.835v1.79c.686-.612,1.387-1.193,2.088-1.805h1.149q-1.23,1.007-2.461,2.058c.805.85,1.626,1.656,2.446,2.476a9.6,9.6,0,0,1-1.134-.015c-.656-.656-1.3-1.327-1.939-2l-.134.179c-.015.612,0,1.223-.015,1.835h-.85C50.332,201.693,50.332,200.187,50.347,198.665Zm-42.84,4.521c1.566,0,3.133-.015,4.7.015.939,1.626,1.894,3.237,2.819,4.878-1.566.015-3.133,0-4.7,0C9.4,206.437,8.431,204.825,7.507,203.185Z" transform="translate(0.04 -195.13)" fill="#f8f8f8"/>
</svg>
