<svg xmlns="http://www.w3.org/2000/svg" xmlns:xlink="http://www.w3.org/1999/xlink" width="24" height="24" viewBox="0 0 24 24">
  <defs>
    <clipPath id="clip-path">
      <rect id="Rectangle_3103" data-name="Rectangle 3103" width="24" height="24" transform="translate(0.4 0.4)" fill="none" stroke="#707070" stroke-width="0.5"/>
    </clipPath>
  </defs>
  <g id="Group_19395" data-name="Group 19395" transform="translate(-0.4 -0.4)" clip-path="url(#clip-path)">
    <path id="Path_5792" data-name="Path 5792" d="M13.12,22.339H5.414A1.541,1.541,0,0,1,3.872,20.8V5.706A1.541,1.541,0,0,1,5.414,4.165H20.729A1.541,1.541,0,0,1,22.27,5.706v7.483" transform="translate(-0.92 -0.989)" fill="none" stroke="#1a1818" stroke-miterlimit="10" stroke-width="0.5"/>
    <line id="Line_329" data-name="Line 329" y2="5.585" transform="translate(8.274 0.515)" fill="none" stroke="#1a1818" stroke-miterlimit="10" stroke-width="0.5"/>
    <line id="Line_330" data-name="Line 330" y2="5.585" transform="translate(16.013 0.515)" fill="none" stroke="#1a1818" stroke-miterlimit="10" stroke-width="0.5"/>
    <path id="Path_5793" data-name="Path 5793" d="M24.654,19.306A5.306,5.306,0,1,1,19.347,14a5.307,5.307,0,0,1,5.306,5.306" transform="translate(-3.335 -3.325)" fill="#fff" stroke="#707070" stroke-width="0.5"/>
    <circle id="Ellipse_351" data-name="Ellipse 351" cx="5.306" cy="5.306" r="5.306" transform="translate(10.706 10.675)" fill="none" stroke="#1a1818" stroke-miterlimit="10" stroke-width="0.5"/>
    <path id="Path_5794" data-name="Path 5794" d="M21,17.443v2.681l1.75,1.75" transform="translate(-4.987 -4.143)" fill="none" stroke="#1a1818" stroke-miterlimit="10" stroke-width="0.5"/>
  </g>
</svg>
