<svg xmlns="http://www.w3.org/2000/svg" width="54.356" height="14.085" viewBox="0 0 54.356 14.085">
  <g id="diners-club-logo3-1" transform="translate(0)">
    <path id="Path_5290" data-name="Path 5290" d="M10.416,14.085A7.319,7.319,0,0,0,17.779,7.1,7.192,7.192,0,0,0,10.416,0H7.1A6.947,6.947,0,0,0,0,7.1a7.056,7.056,0,0,0,7.1,6.981Z" transform="translate(0 0)" fill="#0079be"/>
    <path id="Path_5291" data-name="Path 5291" d="M30.516,20.83a6.447,6.447,0,1,0,6.446,6.448,6.448,6.448,0,0,0-6.446-6.448Zm-4.086,6.448a4.093,4.093,0,0,1,2.623-3.814v7.627a4.091,4.091,0,0,1-2.623-3.813Zm5.548,3.815V23.464a4.084,4.084,0,0,1,0,7.629Z" transform="translate(-23.398 -20.248)"/>
    <g id="Group_16530" data-name="Group 16530" transform="translate(19.33 1.719)">
      <path id="Path_5292" data-name="Path 5292" d="M692.988,62.821c0-.666-.347-.622-.681-.63V62c.289.014.585.014.874.014.311,0,.733-.014,1.282-.014a2.7,2.7,0,0,1,2.962,2.593c0,.734-.429,2.578-3.051,2.578-.378,0-.726-.015-1.074-.015-.333,0-.659.007-.992.015v-.192c.444-.045.659-.06.681-.563Zm.726,3.475c0,.57.408.637.771.637a2.064,2.064,0,0,0,2.126-2.311,2.226,2.226,0,0,0-2.318-2.385c-.3,0-.444.022-.578.03Zm3.971.682h.14c.207,0,.355,0,.355-.245V64.725c0-.326-.111-.371-.385-.518v-.119c.348-.1.763-.244.792-.267a.263.263,0,0,1,.133-.037c.037,0,.052.045.052.1v2.844c0,.245.163.245.37.245h.126v.193c-.252,0-.511-.015-.777-.015s-.534.007-.807.015Zm.792-4.334a.363.363,0,0,1,0-.727.363.363,0,0,1,.363.356A.37.37,0,0,1,698.477,62.644Zm1.5,2.126c0-.274-.082-.348-.429-.489V64.14a9.939,9.939,0,0,0,.977-.356c.022,0,.044.015.044.074v.482a2.172,2.172,0,0,1,1.283-.556c.629,0,.851.459.851,1.037v1.911c0,.245.163.245.37.245h.133v.193c-.26,0-.519-.015-.785-.015s-.534.007-.8.015v-.193h.133c.208,0,.355,0,.355-.245V64.814c0-.423-.258-.63-.681-.63a1.979,1.979,0,0,0-.86.356v2.192c0,.245.164.245.371.245h.133v.193c-.259,0-.519-.015-.785-.015s-.534.007-.8.015v-.193h.134c.207,0,.355,0,.355-.245V64.769Zm3.793.356a1.8,1.8,0,0,0,0,.43,1.237,1.237,0,0,0,1.088,1.281,1.421,1.421,0,0,0,1-.5l.1.1a1.737,1.737,0,0,1-1.37.837,1.488,1.488,0,0,1-1.415-1.615c0-1.452.978-1.882,1.5-1.882a1.176,1.176,0,0,1,1.252,1.163.863.863,0,0,1-.007.134l-.067.044Zm1.311-.237c.185,0,.207-.1.207-.185a.628.628,0,0,0-.645-.682c-.451,0-.763.333-.851.867Zm1.014,2.089h.2c.207,0,.355,0,.355-.245V64.651c0-.229-.273-.274-.385-.333v-.111c.541-.23.837-.423.9-.423.044,0,.066.022.066.1v.667h.016c.185-.289.5-.763.948-.763a.4.4,0,0,1,.422.393.359.359,0,0,1-.348.378c-.231,0-.231-.178-.489-.178a.625.625,0,0,0-.54.615v1.74c0,.245.148.245.355.245h.414v.193c-.407-.008-.717-.015-1.037-.015-.3,0-.615.007-.881.015Zm2.852-.838a.976.976,0,0,0,.933.9.523.523,0,0,0,.6-.526c0-.874-1.614-.593-1.614-1.785a1.018,1.018,0,0,1,1.148-.949,1.944,1.944,0,0,1,.844.215l.053.755h-.171a.76.76,0,0,0-.807-.733.521.521,0,0,0-.577.489c0,.867,1.718.6,1.718,1.763,0,.489-.393,1.008-1.274,1.008a1.951,1.951,0,0,1-.9-.251l-.082-.852Zm8.813-2.8h-.185a1.409,1.409,0,0,0-1.585-1.215,2.111,2.111,0,0,0-2.089,2.348,2.414,2.414,0,0,0,2.208,2.571,1.506,1.506,0,0,0,1.489-1.282l.17.044-.17,1.082a4.15,4.15,0,0,1-1.637.393,2.636,2.636,0,0,1-2.828-2.785,2.723,2.723,0,0,1,2.807-2.608,5.343,5.343,0,0,1,1.748.393Zm.267,3.638h.14c.208,0,.356,0,.356-.245V62.607c0-.482-.111-.5-.393-.578V61.91a4.72,4.72,0,0,0,.763-.319.773.773,0,0,1,.162-.082c.045,0,.06.045.06.1v5.118c0,.245.163.245.37.245h.125v.193c-.251,0-.51-.015-.777-.015s-.533.007-.807.015Zm4.756-.215c0,.134.081.141.207.141.089,0,.2-.007.3-.007v.156a7.558,7.558,0,0,0-1.067.229l-.037-.022v-.6a2,2,0,0,1-1.311.622.8.8,0,0,1-.815-.881V64.5c0-.193-.029-.378-.443-.415v-.141c.267-.007.858-.052.955-.052s.082.052.082.215v1.911c0,.223,0,.86.644.86a1.654,1.654,0,0,0,.9-.451V64.436c0-.148-.355-.229-.621-.3V64c.666-.045,1.081-.1,1.155-.1s.06.052.06.134Zm1.474-2.444a1.87,1.87,0,0,1,1.1-.533,1.442,1.442,0,0,1,1.377,1.556,1.87,1.87,0,0,1-1.771,1.941,2.187,2.187,0,0,1-1.029-.259l-.222.17-.155-.081a8.758,8.758,0,0,0,.1-1.319V62.607c0-.482-.112-.5-.393-.578V61.91a4.677,4.677,0,0,0,.763-.319.762.762,0,0,1,.164-.082c.044,0,.059.045.059.1v2.7h0Zm0,2.015a.8.8,0,0,0,.763.756c.792,0,1.126-.778,1.126-1.438a1.413,1.413,0,0,0-1.185-1.466,1.138,1.138,0,0,0-.7.349ZM692.3,71.477h.057c.145,0,.3-.02.3-.229V69.136c0-.21-.153-.23-.3-.23H692.3v-.121c.157,0,.4.016.6.016s.443-.016.632-.016v.121h-.057c-.144,0-.3.02-.3.23v2.112c0,.21.153.229.3.229h.057V71.6c-.193,0-.436-.016-.637-.016s-.435.016-.593.016Z" transform="translate(-692.282 -61.51)" fill="#211e1f"/>
      <path id="Path_5293" data-name="Path 5293" d="M692.931,324.029c-.195,0-.436-.016-.637-.016s-.434.016-.593.016h-.017v-.156h.074c.146,0,.279-.015.281-.212v-2.112c0-.2-.134-.21-.281-.213h-.074v-.156h.017c.159,0,.4.016.6.016s.442-.016.632-.016h.018v.156h-.074c-.146,0-.28.016-.281.213v2.112c0,.2.135.209.281.212h.074v.156Zm-.017-.034v-.086h-.039c-.144,0-.315-.025-.316-.247v-2.112c0-.223.172-.248.316-.248h.039v-.086c-.186,0-.419.016-.615.016s-.423-.015-.579-.016v.086h.039c.144,0,.316.025.316.248v2.112c0,.223-.172.247-.316.247h-.039v.086c.156,0,.384-.016.575-.016S692.723,323.993,692.913,323.994Zm2.786-.777.008-.008V321.7a.332.332,0,0,0-.351-.379h-.089V321.2c.19,0,.375.016.564.016.165,0,.331-.016.5-.016v.121h-.06c-.17,0-.359.032-.359.512v1.834a2.661,2.661,0,0,0,.024.407h-.153l-2.075-2.314v1.661c0,.351.068.471.379.471h.068v.122c-.173,0-.346-.016-.519-.016s-.366.016-.548.016v-.122h.056c.278,0,.362-.189.362-.511v-1.7a.361.361,0,0,0-.366-.362h-.052V321.2c.153,0,.31.016.463.016.121,0,.238-.016.359-.016Z" transform="translate(-691.684 -313.923)" fill="#211e1f"/>
      <path id="Path_5294" data-name="Path 5294" d="M743.983,320.358l-.166-.006-2.045-2.28v1.615c0,.35.058.45.362.454h.086v.156H742.2c-.174,0-.348-.016-.52-.016s-.366.016-.548.016h-.018v-.156h.074c.266,0,.342-.172.345-.494v-1.7a.345.345,0,0,0-.349-.345h-.071v-.155h.018c.154,0,.312.015.463.015.12,0,.237-.015.372-.01l1.771,1.994v-1.482c0-.321-.216-.359-.333-.362H743.3v-.155h.018c.19,0,.376.015.564.015.164,0,.329-.015.5-.015h.018v.155h-.078c-.166,0-.337.019-.342.495v1.834a2.641,2.641,0,0,0,.024.4l0,.021Zm-.153-.036h.133a2.676,2.676,0,0,1-.021-.389V318.1c0-.484.2-.53.376-.53h.042v-.086c-.159,0-.318.016-.478.016-.184,0-.364-.015-.546-.016v.086h.071a.353.353,0,0,1,.368.4l-.006,1.523-.008.008-.014.013-1.792-2.027c-.12,0-.237.016-.359.016-.148,0-.3-.015-.445-.016v.086h.036a.379.379,0,0,1,.383.38v1.7c0,.322-.09.528-.38.53h-.039v.087c.175,0,.354-.016.53-.016s.336.015.5.016v-.086h-.051c-.317,0-.4-.139-.4-.49v-1.706Zm-.08-.837.013-.012Zm-.009-.008h0l0,0Zm1.241-1.81c-.3,0-.314.073-.374.367h-.121c.016-.113.036-.225.048-.343a2.374,2.374,0,0,0,.024-.342h.1c.032.121.133.117.242.117h2.079c.109,0,.21,0,.218-.125l.1.016c-.016.109-.032.218-.044.327s-.007.218-.007.326l-.121.045c-.008-.149-.029-.388-.3-.388h-.661v2.145c0,.311.141.346.334.346h.077v.122c-.157,0-.44-.016-.657-.016-.242,0-.524.016-.682.016v-.122h.077c.222,0,.334-.02.334-.338v-2.153Z" transform="translate(-739.734 -310.191)" fill="#211e1f"/>
      <path id="Path_5295" data-name="Path 5295" d="M863.1,319.585c-.159,0-.441-.016-.657-.016-.241,0-.523.016-.682.016h-.017v-.156h.094c.222-.005.311-.008.316-.321v-2.135h-.643v-.036h.678v2.171c0,.323-.13.356-.351.356h-.059v.085c.159,0,.43-.015.664-.015.21,0,.48.015.639.015v-.085h-.059c-.195,0-.352-.048-.352-.365v-2.163h.679c.27,0,.306.231.315.381l.087-.032c0-.105,0-.21.008-.317s.026-.207.042-.309l-.062-.01c-.019.117-.132.123-.233.122h-2.1c-.095,0-.2,0-.234-.117h-.067a2.4,2.4,0,0,1-.024.327c-.012.111-.03.217-.045.324h.086c.053-.281.088-.372.388-.368v.036c-.3.005-.292.056-.357.353l0,.014H861l0-.021c.016-.113.037-.225.049-.343a2.276,2.276,0,0,0,.025-.339v-.018h.128l0,.013c.028.1.1.1.2.1h2.1c.112,0,.194,0,.2-.109l0-.019.018,0,.114.018,0,.018c-.016.108-.032.217-.044.325s-.008.216-.008.325v.013l-.011,0-.143.052v-.024c-.011-.151-.026-.371-.281-.371h-.643V319.1c0,.3.124.325.316.329h.094v.156Zm.849-.139h.057c.145,0,.3-.02.3-.229v-2.112c0-.21-.153-.23-.3-.23h-.057v-.121c.245,0,.665.016,1,.016s.758-.016,1.031-.016c-.007.173,0,.44.009.617l-.122.032c-.019-.262-.068-.471-.491-.471h-.56v1.056h.479c.242,0,.294-.137.318-.355h.121q-.012.237-.012.472c0,.153,0,.306.012.459l-.121.024c-.024-.242-.036-.4-.314-.4h-.483v.939c0,.262.233.262.491.262.484,0,.7-.033.818-.492l.113.028c-.053.214-.1.427-.137.641-.258,0-.722-.016-1.084-.016s-.843.016-1.072.016Z" transform="translate(-856.268 -309.48)" fill="#211e1f"/>
      <path id="Path_5296" data-name="Path 5296" d="M968.252,324.049c-.259,0-.722-.017-1.084-.017s-.842.017-1.072.017h-.017v-.156h.074c.146,0,.279-.015.281-.212v-2.112c0-.2-.134-.21-.281-.213h-.074V321.2h.017c.246,0,.665.015,1,.015s.757-.015,1.031-.015h.018v.018c0,.061,0,.132,0,.208,0,.139,0,.292.012.407v.015l-.014,0-.142.037v-.021c-.024-.262-.059-.451-.474-.455h-.543v1.02h.463c.232,0,.274-.121.3-.338v-.016h.154v.018c-.008.157-.013.314-.013.471s.005.305.013.459v.014l-.014,0-.14.028v-.019c-.028-.246-.03-.381-.3-.384h-.466v.922c0,.245.212.243.475.245.485,0,.68-.026.8-.479l0-.016.017,0,.129.033,0,.017c-.052.214-.1.426-.136.64l0,.014Zm-.015-.035c.035-.2.081-.407.131-.61l-.08-.02c-.121.451-.354.491-.83.488-.254,0-.508,0-.509-.28v-.956h.5c.281,0,.31.167.33.4l.087-.018q-.012-.222-.011-.445c0-.152,0-.3.011-.454h-.087c-.022.21-.088.357-.334.355h-.5v-1.091h.578c.419,0,.489.214.507.467l.087-.023c-.007-.114-.012-.26-.012-.394,0-.069,0-.134,0-.191-.274,0-.682.016-1.014.016s-.739-.015-.986-.016v.086h.039c.144,0,.315.025.316.248v2.112c0,.222-.172.247-.316.248h-.039v.085c.235,0,.7-.015,1.055-.015S967.977,324.014,968.237,324.014Zm.7-2.368c0-.294-.161-.306-.286-.306h-.072v-.121c.129,0,.379.016.625.016s.435-.016.649-.016c.508,0,.959.137.959.71a.761.761,0,0,1-.56.709l.689,1.031a.446.446,0,0,0,.391.242v.122c-.133,0-.262-.016-.395-.016s-.254.016-.379.016a11.283,11.283,0,0,1-.839-1.307h-.265v.863c0,.311.145.322.33.322h.073v.122c-.23,0-.463-.016-.693-.016-.194,0-.383.016-.584.016v-.122h.072c.15,0,.286-.068.286-.217Zm.516.935h.2c.4,0,.62-.153.62-.629a.55.55,0,0,0-.589-.588,2.052,2.052,0,0,0-.229.016Z" transform="translate(-958.411 -313.943)" fill="#211e1f"/>
      <path id="Path_5297" data-name="Path 5297" d="M1057.5,324.032c-.135,0-.263-.016-.4-.016s-.252.016-.392.009a11.248,11.248,0,0,1-.835-1.3h-.238v.845c0,.3.126.3.313.305h.09v.156h-.018c-.23,0-.464-.016-.693-.016-.193,0-.382.016-.584.016h-.018v-.156h.09c.145,0,.268-.064.268-.2v-2.048c0-.286-.143-.284-.268-.289h-.09v-.156h.018c.13,0,.379.016.625.016s.434-.016.649-.016c.508,0,.976.141.977.727a.772.772,0,0,1-.552.718l.677,1.014a.432.432,0,0,0,.379.234l.015,0v.154Zm-1.878-1.341h.276l0,.009a12.554,12.554,0,0,0,.824,1.3c.123,0,.252-.017.378-.017s.253.014.378.016v-.088a.461.461,0,0,1-.388-.247l-.7-1.049.02-.008a.742.742,0,0,0,.549-.694c0-.559-.435-.689-.941-.691-.213,0-.406.016-.649.016s-.476-.015-.608-.016v.086h.055c.125,0,.3.021.3.324v2.048c0,.162-.152.236-.3.236h-.055V324c.194,0,.378-.016.567-.016.225,0,.453.015.676.016v-.085h-.055c-.184,0-.348-.023-.348-.341v-.88Zm0-.111h-.018v-1.234h.016a1.971,1.971,0,0,1,.231-.016.569.569,0,0,1,.607.606c0,.481-.232.645-.638.645Zm.2-.035c.4,0,.6-.142.6-.61a.534.534,0,0,0-.572-.572,1.721,1.721,0,0,0-.211.014v1.168Zm4.417.675.007-.008V321.7a.332.332,0,0,0-.35-.379h-.089V321.2c.189,0,.374.016.564.016.165,0,.33-.016.5-.016v.121h-.06c-.169,0-.359.032-.359.512v1.834a2.662,2.662,0,0,0,.024.407h-.153l-2.075-2.314v1.661c0,.351.068.471.379.471h.069v.122c-.173,0-.347-.016-.52-.016s-.367.016-.548.016v-.122h.056c.278,0,.363-.189.363-.511v-1.7a.361.361,0,0,0-.366-.362h-.052V321.2c.153,0,.311.016.463.016.12,0,.238-.016.359-.016Z" transform="translate(-1044.584 -313.926)" fill="#211e1f"/>
      <path id="Path_5298" data-name="Path 5298" d="M1160.387,321.192l-.166-.006-2.045-2.28v1.615c0,.351.058.45.362.454h.085v.156h-.018c-.174,0-.347-.017-.52-.017s-.366.017-.548.017h-.018v-.156h.074c.266,0,.342-.172.345-.495v-1.7a.344.344,0,0,0-.348-.345h-.071v-.156h.018c.154,0,.311.016.464.016.118,0,.235-.016.37-.01l1.772,1.995V318.8c0-.32-.216-.36-.333-.362h-.107v-.156h.018c.191,0,.376.016.564.016.164,0,.33-.016.5-.016h.017v.156h-.078c-.166,0-.338.019-.342.495v1.834a2.582,2.582,0,0,0,.024.4l0,.02Zm-.153-.035h.132a2.754,2.754,0,0,1-.021-.389v-1.834c0-.484.2-.528.377-.53h.042v-.085c-.158,0-.318.016-.478.016-.185,0-.365-.014-.547-.016v.085h.072a.353.353,0,0,1,.368.4l-.006,1.524-.008.008-.012.013-1.794-2.027c-.12,0-.236.016-.358.016-.149,0-.3-.014-.447-.016v.085h.036a.38.38,0,0,1,.383.38v1.7c0,.324-.091.53-.38.531h-.039v.085c.174,0,.354-.015.531-.015s.336.015.5.015v-.085h-.051c-.317,0-.4-.139-.4-.49v-1.705Zm-.081-.837.012-.011Zm-.01-.008h0l0,0Zm1.287.226a1.6,1.6,0,0,0-.089.314c0,.121.17.141.3.141h.045v.122c-.161-.009-.326-.016-.488-.016-.145,0-.289.007-.435.016v-.122h.024a.364.364,0,0,0,.35-.262l.646-1.85a3.433,3.433,0,0,0,.149-.5,2.051,2.051,0,0,0,.366-.173.091.091,0,0,1,.032-.008.028.028,0,0,1,.029.013c.012.032.024.068.036.1l.741,2.108c.048.141.1.29.148.411a.257.257,0,0,0,.267.161h.024v.122c-.181-.009-.363-.016-.556-.016s-.4.007-.605.016v-.122h.045c.092,0,.25-.016.25-.117a1.29,1.29,0,0,0-.081-.29l-.157-.467h-.915Zm.588-1.786h-.008l-.375,1.141h.753Z" transform="translate(-1144.501 -311.026)" fill="#211e1f"/>
      <path id="Path_5299" data-name="Path 5299" d="M1275.853,320.3c-.182-.008-.363-.017-.555-.017s-.4.008-.6.017h-.018v-.158h.062c.094,0,.232-.021.232-.1a1.279,1.279,0,0,0-.08-.285l-.153-.456h-.889l-.125.407a1.692,1.692,0,0,0-.089.31c0,.1.152.122.286.122h.062v.158h-.018c-.161-.008-.326-.017-.486-.017-.144,0-.29.008-.434.017h-.019v-.158h.042a.346.346,0,0,0,.333-.25l.645-1.85a4.679,4.679,0,0,0,.16-.511,2.045,2.045,0,0,0,.366-.173.113.113,0,0,1,.039-.009.05.05,0,0,1,.045.023c.011.033.024.069.036.1l.742,2.108c.047.141.1.29.148.409a.236.236,0,0,0,.25.15h.041v.158Zm-1.142-.036c.2-.007.395-.015.588-.015s.362.008.538.015v-.084h-.006a.274.274,0,0,1-.283-.172c-.052-.122-.1-.272-.149-.413l-.742-2.108c-.012-.032-.024-.069-.035-.1,0,0,0,0-.006,0h-.007a.081.081,0,0,0-.023.005,1.5,1.5,0,0,1-.359.161,3.372,3.372,0,0,1-.15.5l-.645,1.85a.384.384,0,0,1-.367.274h-.006v.084c.138-.007.278-.015.418-.015.156,0,.315.008.469.015v-.084h-.026c-.131,0-.314-.017-.319-.159a1.594,1.594,0,0,1,.089-.32l.018.005-.018-.006.133-.431h.94l.162.479a1.224,1.224,0,0,1,.082.3c-.006.124-.176.132-.267.135h-.027Zm-.824-1.185.386-1.176h.022v.018h0V317.9h.012l.383,1.176Zm.049-.035h.705l-.351-1.08Zm.342-1.118.009,0Zm1.754-.255c-.3,0-.314.073-.375.367h-.121c.016-.113.036-.225.049-.343a2.383,2.383,0,0,0,.023-.342h.1c.032.121.133.117.241.117h2.08c.108,0,.209,0,.217-.125l.1.016c-.015.109-.031.218-.044.327s-.008.218-.008.326l-.121.045c-.008-.149-.028-.388-.3-.388h-.661v2.145c0,.311.141.346.334.346h.077v.122c-.157,0-.439-.016-.657-.016-.241,0-.524.016-.681.016v-.122h.076c.222,0,.335-.02.335-.338v-2.153Z" transform="translate(-1256.776 -310.191)" fill="#211e1f"/>
      <path id="Path_5300" data-name="Path 5300" d="M1364.274,319.586c-.158,0-.44-.016-.657-.016-.241,0-.523.016-.681.016h-.018v-.156h.094c.222-.005.311-.008.317-.321v-2.135h-.642v-.036h.678v2.171c0,.323-.131.355-.352.356h-.059v.086c.16,0,.43-.016.664-.016.21,0,.48.015.639.016v-.086h-.06c-.193,0-.351-.048-.351-.364v-2.163h.679c.271,0,.306.231.314.381l.088-.032c0-.105,0-.21.008-.316s.026-.207.041-.31l-.061-.01c-.019.117-.132.124-.233.122h-2.1c-.1,0-.2,0-.235-.118h-.066a2.39,2.39,0,0,1-.025.328c-.011.111-.031.218-.046.324h.086c.053-.281.088-.372.39-.368v.035c-.3.005-.292.056-.358.354l0,.014h-.155l0-.02c.017-.114.037-.226.049-.343a2.346,2.346,0,0,0,.024-.34v-.018h.127l0,.013c.028.1.1.1.205.1h2.1c.111,0,.193,0,.2-.109v-.019l.019,0,.114.018,0,.018c-.016.108-.032.217-.044.325s-.008.217-.008.325v.013l-.011,0-.143.052v-.023c-.01-.151-.026-.371-.281-.371h-.644V319.1c0,.3.125.325.316.329h.094v.156Zm.87-.139h.056c.146,0,.3-.02.3-.229v-2.112c0-.21-.152-.23-.3-.23h-.056v-.121c.157,0,.4.016.6.016s.444-.016.634-.016v.121h-.057c-.145,0-.3.02-.3.23v2.112c0,.21.154.229.3.229h.057v.122c-.194,0-.436-.016-.636-.016s-.436.016-.593.016Z" transform="translate(-1343.432 -309.481)" fill="#211e1f"/>
      <path id="Path_5301" data-name="Path 5301" d="M1469.211,322.551c-.195,0-.436-.017-.637-.017s-.435.017-.593.017h-.018V322.4h.074c.146,0,.279-.015.28-.212v-2.112c0-.2-.134-.21-.28-.213h-.074V319.7h.018c.157,0,.4.015.6.015s.443-.015.634-.015h.017v.155h-.073c-.148,0-.28.016-.282.213v2.112c0,.2.135.21.282.212h.073v.156Zm-.018-.035v-.085h-.038c-.145,0-.316-.025-.316-.248v-2.112c0-.223.171-.248.316-.248h.038v-.086c-.186,0-.419.016-.615.016s-.422-.015-.578-.016v.086h.039c.143,0,.315.025.315.248v2.112c0,.222-.172.248-.315.248H1468v.085c.156,0,.384-.015.575-.015S1469,322.515,1469.193,322.516Zm1.625-2.856a1.414,1.414,0,0,1,1.544,1.391,1.478,1.478,0,0,1-1.523,1.543,1.424,1.424,0,0,1-1.507-1.447A1.466,1.466,0,0,1,1470.818,319.66Zm.061,2.757c.782,0,.918-.69.918-1.277s-.317-1.3-.987-1.3c-.705,0-.915.629-.915,1.168C1469.9,321.727,1470.226,322.417,1470.879,322.417Z" transform="translate(-1446.269 -312.446)" fill="#211e1f"/>
      <path id="Path_5302" data-name="Path 5302" d="M1516.252,320.535a1.486,1.486,0,0,1,1.5-1.5v.035a1.45,1.45,0,0,0-1.47,1.47,1.408,1.408,0,0,0,1.491,1.429,1.461,1.461,0,0,0,1.506-1.526,1.4,1.4,0,0,0-1.527-1.373v-.035a1.433,1.433,0,0,1,1.562,1.408,1.5,1.5,0,0,1-1.54,1.561,1.445,1.445,0,0,1-1.525-1.464Zm.565-.142c0-.542.213-1.187.932-1.187.684,0,1,.728,1,1.321s-.139,1.294-.936,1.294v-.034c.766,0,.9-.672.9-1.26s-.315-1.284-.97-1.285c-.691,0-.9.614-.9,1.151,0,.718.328,1.392.966,1.394v.034C1517.148,321.82,1516.818,321.119,1516.817,320.393Zm5.2.734.008-.008v-1.511a.333.333,0,0,0-.351-.379h-.087v-.121c.189,0,.374.016.563.016.166,0,.331-.016.5-.016v.121h-.061c-.169,0-.359.032-.359.512v1.834a2.615,2.615,0,0,0,.024.407h-.153l-2.076-2.314v1.661c0,.351.068.471.378.471h.069v.122c-.174,0-.346-.016-.52-.016s-.367.016-.548.016V321.8h.056c.279,0,.362-.189.362-.511v-1.7a.36.36,0,0,0-.366-.362h-.052v-.121c.153,0,.31.016.463.016.121,0,.238-.016.359-.016Z" transform="translate(-1493.208 -311.833)" fill="#211e1f"/>
      <path id="Path_5303" data-name="Path 5303" d="M1631.164,321.192l-.167-.006-2.045-2.28v1.615c0,.35.058.45.361.453h.087v.156h-.018c-.175,0-.348-.016-.52-.016s-.366.016-.549.016h-.017v-.156h.074c.266,0,.342-.172.346-.493v-1.7a.345.345,0,0,0-.35-.345h-.07v-.155h.017c.154,0,.311.015.464.015.119,0,.236-.015.372-.01l1.77,1.994V318.8c0-.321-.216-.359-.334-.362h-.106v-.155h.018c.19,0,.375.015.563.015.165,0,.33-.015.5-.015h.017v.155h-.078c-.166,0-.338.02-.341.495v1.834a2.656,2.656,0,0,0,.023.4l0,.02h-.019Zm-.153-.035h.132a2.775,2.775,0,0,1-.021-.389v-1.834c0-.485.2-.528.376-.53h.044v-.085c-.159,0-.319.016-.48.016-.183,0-.364-.014-.546-.016v.085h.071a.354.354,0,0,1,.368.4l0,1.523-.007.008-.013.013-1.793-2.027c-.119,0-.237.016-.359.016-.148,0-.3-.014-.446-.016v.085h.036a.381.381,0,0,1,.384.38v1.7c0,.322-.09.529-.38.53h-.04v.085c.175,0,.355-.015.532-.015s.335.015.5.015v-.085h-.052c-.316,0-.4-.139-.4-.49v-1.706Zm-.081-.837.013-.011Zm-.01-.008h0l0,0Zm1.286.226a1.715,1.715,0,0,0-.088.314c0,.121.17.141.3.141h.045v.122c-.161-.009-.327-.016-.488-.016-.146,0-.29.007-.434.016v-.122h.023a.365.365,0,0,0,.351-.262l.646-1.85a3.338,3.338,0,0,0,.148-.5,2.081,2.081,0,0,0,.367-.173.087.087,0,0,1,.032-.008.026.026,0,0,1,.027.013c.012.032.025.068.037.1l.741,2.108c.048.141.1.29.149.411a.256.256,0,0,0,.266.161h.024v.122c-.182-.009-.363-.016-.557-.016s-.4.007-.6.016v-.122h.045c.092,0,.25-.016.25-.117a1.292,1.292,0,0,0-.081-.29l-.157-.467h-.915Zm.589-1.786h-.008l-.375,1.141h.754Z" transform="translate(-1602.122 -311.026)" fill="#211e1f"/>
      <path id="Path_5304" data-name="Path 5304" d="M1746.629,320.541c-.181-.007-.362-.016-.555-.016s-.4.009-.6.016h-.018v-.157h.061c.094,0,.233-.022.233-.1a1.29,1.29,0,0,0-.08-.285l-.153-.456h-.89l-.125.407a1.688,1.688,0,0,0-.088.309c0,.1.151.124.284.124h.062v.157h-.018c-.161-.007-.326-.016-.486-.016-.145,0-.289.009-.435.016h-.017v-.157h.04a.348.348,0,0,0,.335-.25l.645-1.85c.051-.15.124-.35.16-.511a2.157,2.157,0,0,0,.367-.174.106.106,0,0,1,.038-.008.045.045,0,0,1,.044.023c.012.032.024.068.037.1l.741,2.108c.048.141.1.29.149.41a.237.237,0,0,0,.249.15h.042v.157Zm-1.142-.035c.2-.008.4-.015.587-.015s.363.008.539.015v-.084h-.007a.275.275,0,0,1-.282-.172c-.053-.122-.1-.272-.149-.413l-.742-2.108c-.012-.032-.024-.069-.034-.1,0-.005,0-.005-.006-.005h-.008a.075.075,0,0,0-.023.006,1.549,1.549,0,0,1-.359.161,3.44,3.44,0,0,1-.15.5l-.645,1.85a.383.383,0,0,1-.367.274h-.006v.084c.139-.007.277-.015.418-.015.156,0,.315.008.47.015v-.084h-.027c-.131,0-.315-.016-.32-.159a1.7,1.7,0,0,1,.09-.319l.016.005-.016-.006.133-.431h.94l.161.479a1.243,1.243,0,0,1,.081.3c-.006.124-.175.132-.267.135h-.027Zm-.823-1.186.387-1.175h.021v.018h0v-.018h.012l.381,1.175Zm.049-.035h.7l-.351-1.08Zm.342-1.118.008,0Zm2.592,1.962c0,.161.112.209.241.226a2.938,2.938,0,0,0,.533-.008.577.577,0,0,0,.386-.218.916.916,0,0,0,.125-.29h.117c-.044.23-.1.456-.149.685-.354,0-.709-.016-1.063-.016s-.709.016-1.064.016V320.4h.055c.146,0,.3-.019.3-.27v-2.071c0-.21-.158-.23-.3-.23h-.055v-.121c.213,0,.423.016.636.016s.407-.016.613-.016v.121h-.1c-.153,0-.273,0-.273.217Z" transform="translate(-1714.398 -310.436)" fill="#211e1f"/>
      <path id="Path_5305" data-name="Path 5305" d="M1851.616,320.665c-.355,0-.71-.016-1.063-.016s-.71.016-1.065.016h-.017v-.156h.073c.146,0,.285-.013.286-.252v-2.072c0-.2-.139-.209-.286-.212h-.073v-.155h.017c.214,0,.424.015.637.015s.406-.015.613-.015h.017v.155h-.118c-.156,0-.253,0-.257.2v2.08c0,.15.1.191.226.208.071.005.146.008.223.008a2.861,2.861,0,0,0,.305-.016.56.56,0,0,0,.375-.21.9.9,0,0,0,.122-.285l0-.013h.151l0,.021c-.046.231-.1.456-.15.685l0,.014h-.014Zm-.014-.035c.046-.219.1-.432.143-.65h-.083a.921.921,0,0,1-.125.284.6.6,0,0,1-.4.224,3.026,3.026,0,0,1-.309.017c-.078,0-.154,0-.227-.009-.131-.015-.258-.07-.258-.243v-2.08c0-.224.142-.235.292-.235h.083v-.086c-.2,0-.394.016-.6.016s-.413-.015-.62-.016v.086h.039c.144,0,.32.025.32.247v2.072c0,.261-.175.288-.32.288h-.039v.085c.349,0,.7-.015,1.047-.015S1851.253,320.63,1851.6,320.63Zm.115-2.91a.424.424,0,1,1-.425.426A.417.417,0,0,1,1851.717,317.72Zm0,.77a.345.345,0,1,0-.337-.344A.342.342,0,0,0,1851.717,318.49Zm-.211-.12v-.021c.052-.007.062-.006.062-.038V318c0-.044,0-.059-.06-.057v-.022h.217c.075,0,.143.035.143.113a.133.133,0,0,1-.1.128l.069.1a.442.442,0,0,0,.094.1v.014h-.083c-.04,0-.075-.084-.153-.2h-.047v.141c0,.028.01.026.062.034v.021h-.205Zm.143-.224h.05c.055,0,.081-.042.081-.108a.08.08,0,0,0-.083-.091h-.047Z" transform="translate(-1817.115 -310.56)" fill="#211e1f"/>
    </g>
    <path id="Path_5306" data-name="Path 5306" d="M10.416,14.085A7.319,7.319,0,0,0,17.779,7.1,7.192,7.192,0,0,0,10.416,0H7.1A6.947,6.947,0,0,0,0,7.1a7.056,7.056,0,0,0,7.1,6.981Z" transform="translate(0 0)" fill="#f8f8f8"/>
    <path id="Path_5307" data-name="Path 5307" d="M30.516,20.83a6.447,6.447,0,1,0,6.446,6.448,6.448,6.448,0,0,0-6.446-6.448Zm-4.086,6.448a4.093,4.093,0,0,1,2.623-3.814v7.627a4.091,4.091,0,0,1-2.623-3.813Zm5.548,3.815V23.464a4.084,4.084,0,0,1,0,7.629Z" transform="translate(-23.398 -20.248)"/>
    <g id="Group_16531" data-name="Group 16531" transform="translate(19.33 1.719)">
      <path id="Path_5308" data-name="Path 5308" d="M692.988,62.821c0-.666-.347-.622-.681-.63V62c.289.014.585.014.874.014.311,0,.733-.014,1.282-.014a2.7,2.7,0,0,1,2.962,2.593c0,.734-.429,2.578-3.051,2.578-.378,0-.726-.015-1.074-.015-.333,0-.659.007-.992.015v-.192c.444-.045.659-.06.681-.563Zm.726,3.475c0,.57.408.637.771.637a2.064,2.064,0,0,0,2.126-2.311,2.226,2.226,0,0,0-2.318-2.385c-.3,0-.444.022-.578.03Zm3.971.682h.14c.207,0,.355,0,.355-.245V64.725c0-.326-.111-.371-.385-.518v-.119c.348-.1.763-.244.792-.267a.263.263,0,0,1,.133-.037c.037,0,.052.045.052.1v2.844c0,.245.163.245.37.245h.126v.193c-.252,0-.511-.015-.777-.015s-.534.007-.807.015Zm.792-4.334a.363.363,0,0,1,0-.727.363.363,0,0,1,.363.356A.37.37,0,0,1,698.477,62.644Zm1.5,2.126c0-.274-.082-.348-.429-.489V64.14a9.939,9.939,0,0,0,.977-.356c.022,0,.044.015.044.074v.482a2.172,2.172,0,0,1,1.283-.556c.629,0,.851.459.851,1.037v1.911c0,.245.163.245.37.245h.133v.193c-.26,0-.519-.015-.785-.015s-.534.007-.8.015v-.193h.133c.208,0,.355,0,.355-.245V64.814c0-.423-.258-.63-.681-.63a1.979,1.979,0,0,0-.86.356v2.192c0,.245.164.245.371.245h.133v.193c-.259,0-.519-.015-.785-.015s-.534.007-.8.015v-.193h.134c.207,0,.355,0,.355-.245V64.769Zm3.793.356a1.8,1.8,0,0,0,0,.43,1.237,1.237,0,0,0,1.088,1.281,1.421,1.421,0,0,0,1-.5l.1.1a1.737,1.737,0,0,1-1.37.837,1.488,1.488,0,0,1-1.415-1.615c0-1.452.978-1.882,1.5-1.882a1.176,1.176,0,0,1,1.252,1.163.863.863,0,0,1-.007.134l-.067.044Zm1.311-.237c.185,0,.207-.1.207-.185a.628.628,0,0,0-.645-.682c-.451,0-.763.333-.851.867Zm1.014,2.089h.2c.207,0,.355,0,.355-.245V64.651c0-.229-.273-.274-.385-.333v-.111c.541-.23.837-.423.9-.423.044,0,.066.022.066.1v.667h.016c.185-.289.5-.763.948-.763a.4.4,0,0,1,.422.393.359.359,0,0,1-.348.378c-.231,0-.231-.178-.489-.178a.625.625,0,0,0-.54.615v1.74c0,.245.148.245.355.245h.414v.193c-.407-.008-.717-.015-1.037-.015-.3,0-.615.007-.881.015Zm2.852-.838a.976.976,0,0,0,.933.9.523.523,0,0,0,.6-.526c0-.874-1.614-.593-1.614-1.785a1.018,1.018,0,0,1,1.148-.949,1.944,1.944,0,0,1,.844.215l.053.755h-.171a.76.76,0,0,0-.807-.733.521.521,0,0,0-.577.489c0,.867,1.718.6,1.718,1.763,0,.489-.393,1.008-1.274,1.008a1.951,1.951,0,0,1-.9-.251l-.082-.852Zm8.813-2.8h-.185a1.409,1.409,0,0,0-1.585-1.215,2.111,2.111,0,0,0-2.089,2.348,2.414,2.414,0,0,0,2.208,2.571,1.506,1.506,0,0,0,1.489-1.282l.17.044-.17,1.082a4.15,4.15,0,0,1-1.637.393,2.636,2.636,0,0,1-2.828-2.785,2.723,2.723,0,0,1,2.807-2.608,5.343,5.343,0,0,1,1.748.393Zm.267,3.638h.14c.208,0,.356,0,.356-.245V62.607c0-.482-.111-.5-.393-.578V61.91a4.72,4.72,0,0,0,.763-.319.773.773,0,0,1,.162-.082c.045,0,.06.045.06.1v5.118c0,.245.163.245.37.245h.125v.193c-.251,0-.51-.015-.777-.015s-.533.007-.807.015Zm4.756-.215c0,.134.081.141.207.141.089,0,.2-.007.3-.007v.156a7.558,7.558,0,0,0-1.067.229l-.037-.022v-.6a2,2,0,0,1-1.311.622.8.8,0,0,1-.815-.881V64.5c0-.193-.029-.378-.443-.415v-.141c.267-.007.858-.052.955-.052s.082.052.082.215v1.911c0,.223,0,.86.644.86a1.654,1.654,0,0,0,.9-.451V64.436c0-.148-.355-.229-.621-.3V64c.666-.045,1.081-.1,1.155-.1s.06.052.06.134Zm1.474-2.444a1.87,1.87,0,0,1,1.1-.533,1.442,1.442,0,0,1,1.377,1.556,1.87,1.87,0,0,1-1.771,1.941,2.187,2.187,0,0,1-1.029-.259l-.222.17-.155-.081a8.758,8.758,0,0,0,.1-1.319V62.607c0-.482-.112-.5-.393-.578V61.91a4.677,4.677,0,0,0,.763-.319.762.762,0,0,1,.164-.082c.044,0,.059.045.059.1v2.7h0Zm0,2.015a.8.8,0,0,0,.763.756c.792,0,1.126-.778,1.126-1.438a1.413,1.413,0,0,0-1.185-1.466,1.138,1.138,0,0,0-.7.349ZM692.3,71.477h.057c.145,0,.3-.02.3-.229V69.136c0-.21-.153-.23-.3-.23H692.3v-.121c.157,0,.4.016.6.016s.443-.016.632-.016v.121h-.057c-.144,0-.3.02-.3.23v2.112c0,.21.153.229.3.229h.057V71.6c-.193,0-.436-.016-.637-.016s-.435.016-.593.016Z" transform="translate(-692.282 -61.51)" fill="#f8f8f8"/>
      <path id="Path_5309" data-name="Path 5309" d="M692.931,324.029c-.195,0-.436-.016-.637-.016s-.434.016-.593.016h-.017v-.156h.074c.146,0,.279-.015.281-.212v-2.112c0-.2-.134-.21-.281-.213h-.074v-.156h.017c.159,0,.4.016.6.016s.442-.016.632-.016h.018v.156h-.074c-.146,0-.28.016-.281.213v2.112c0,.2.135.209.281.212h.074v.156Zm-.017-.034v-.086h-.039c-.144,0-.315-.025-.316-.247v-2.112c0-.223.172-.248.316-.248h.039v-.086c-.186,0-.419.016-.615.016s-.423-.015-.579-.016v.086h.039c.144,0,.316.025.316.248v2.112c0,.223-.172.247-.316.247h-.039v.086c.156,0,.384-.016.575-.016S692.723,323.993,692.913,323.994Zm2.786-.777.008-.008V321.7a.332.332,0,0,0-.351-.379h-.089V321.2c.19,0,.375.016.564.016.165,0,.331-.016.5-.016v.121h-.06c-.17,0-.359.032-.359.512v1.834a2.661,2.661,0,0,0,.024.407h-.153l-2.075-2.314v1.661c0,.351.068.471.379.471h.068v.122c-.173,0-.346-.016-.519-.016s-.366.016-.548.016v-.122h.056c.278,0,.362-.189.362-.511v-1.7a.361.361,0,0,0-.366-.362h-.052V321.2c.153,0,.31.016.463.016.121,0,.238-.016.359-.016Z" transform="translate(-691.684 -313.923)" fill="#f8f8f8"/>
      <path id="Path_5310" data-name="Path 5310" d="M743.983,320.358l-.166-.006-2.045-2.28v1.615c0,.35.058.45.362.454h.086v.156H742.2c-.174,0-.348-.016-.52-.016s-.366.016-.548.016h-.018v-.156h.074c.266,0,.342-.172.345-.494v-1.7a.345.345,0,0,0-.349-.345h-.071v-.155h.018c.154,0,.312.015.463.015.12,0,.237-.015.372-.01l1.771,1.994v-1.482c0-.321-.216-.359-.333-.362H743.3v-.155h.018c.19,0,.376.015.564.015.164,0,.329-.015.5-.015h.018v.155h-.078c-.166,0-.337.019-.342.495v1.834a2.641,2.641,0,0,0,.024.4l0,.021Zm-.153-.036h.133a2.676,2.676,0,0,1-.021-.389V318.1c0-.484.2-.53.376-.53h.042v-.086c-.159,0-.318.016-.478.016-.184,0-.364-.015-.546-.016v.086h.071a.353.353,0,0,1,.368.4l-.006,1.523-.008.008-.014.013-1.792-2.027c-.12,0-.237.016-.359.016-.148,0-.3-.015-.445-.016v.086h.036a.379.379,0,0,1,.383.38v1.7c0,.322-.09.528-.38.53h-.039v.087c.175,0,.354-.016.53-.016s.336.015.5.016v-.086h-.051c-.317,0-.4-.139-.4-.49v-1.706Zm-.08-.837.013-.012Zm-.009-.008h0l0,0Zm1.241-1.81c-.3,0-.314.073-.374.367h-.121c.016-.113.036-.225.048-.343a2.374,2.374,0,0,0,.024-.342h.1c.032.121.133.117.242.117h2.079c.109,0,.21,0,.218-.125l.1.016c-.016.109-.032.218-.044.327s-.007.218-.007.326l-.121.045c-.008-.149-.029-.388-.3-.388h-.661v2.145c0,.311.141.346.334.346h.077v.122c-.157,0-.44-.016-.657-.016-.242,0-.524.016-.682.016v-.122h.077c.222,0,.334-.02.334-.338v-2.153Z" transform="translate(-739.734 -310.191)" fill="#f8f8f8"/>
      <path id="Path_5311" data-name="Path 5311" d="M863.1,319.585c-.159,0-.441-.016-.657-.016-.241,0-.523.016-.682.016h-.017v-.156h.094c.222-.005.311-.008.316-.321v-2.135h-.643v-.036h.678v2.171c0,.323-.13.356-.351.356h-.059v.085c.159,0,.43-.015.664-.015.21,0,.48.015.639.015v-.085h-.059c-.195,0-.352-.048-.352-.365v-2.163h.679c.27,0,.306.231.315.381l.087-.032c0-.105,0-.21.008-.317s.026-.207.042-.309l-.062-.01c-.019.117-.132.123-.233.122h-2.1c-.095,0-.2,0-.234-.117h-.067a2.4,2.4,0,0,1-.024.327c-.012.111-.03.217-.045.324h.086c.053-.281.088-.372.388-.368v.036c-.3.005-.292.056-.357.353l0,.014H861l0-.021c.016-.113.037-.225.049-.343a2.276,2.276,0,0,0,.025-.339v-.018h.128l0,.013c.028.1.1.1.2.1h2.1c.112,0,.194,0,.2-.109l0-.019.018,0,.114.018,0,.018c-.016.108-.032.217-.044.325s-.008.216-.008.325v.013l-.011,0-.143.052v-.024c-.011-.151-.026-.371-.281-.371h-.643V319.1c0,.3.124.325.316.329h.094v.156Zm.849-.139h.057c.145,0,.3-.02.3-.229v-2.112c0-.21-.153-.23-.3-.23h-.057v-.121c.245,0,.665.016,1,.016s.758-.016,1.031-.016c-.007.173,0,.44.009.617l-.122.032c-.019-.262-.068-.471-.491-.471h-.56v1.056h.479c.242,0,.294-.137.318-.355h.121q-.012.237-.012.472c0,.153,0,.306.012.459l-.121.024c-.024-.242-.036-.4-.314-.4h-.483v.939c0,.262.233.262.491.262.484,0,.7-.033.818-.492l.113.028c-.053.214-.1.427-.137.641-.258,0-.722-.016-1.084-.016s-.843.016-1.072.016Z" transform="translate(-856.268 -309.48)" fill="#f8f8f8"/>
      <path id="Path_5312" data-name="Path 5312" d="M968.252,324.049c-.259,0-.722-.017-1.084-.017s-.842.017-1.072.017h-.017v-.156h.074c.146,0,.279-.015.281-.212v-2.112c0-.2-.134-.21-.281-.213h-.074V321.2h.017c.246,0,.665.015,1,.015s.757-.015,1.031-.015h.018v.018c0,.061,0,.132,0,.208,0,.139,0,.292.012.407v.015l-.014,0-.142.037v-.021c-.024-.262-.059-.451-.474-.455h-.543v1.02h.463c.232,0,.274-.121.3-.338v-.016h.154v.018c-.008.157-.013.314-.013.471s.005.305.013.459v.014l-.014,0-.14.028v-.019c-.028-.246-.03-.381-.3-.384h-.466v.922c0,.245.212.243.475.245.485,0,.68-.026.8-.479l0-.016.017,0,.129.033,0,.017c-.052.214-.1.426-.136.64l0,.014Zm-.015-.035c.035-.2.081-.407.131-.61l-.08-.02c-.121.451-.354.491-.83.488-.254,0-.508,0-.509-.28v-.956h.5c.281,0,.31.167.33.4l.087-.018q-.012-.222-.011-.445c0-.152,0-.3.011-.454h-.087c-.022.21-.088.357-.334.355h-.5v-1.091h.578c.419,0,.489.214.507.467l.087-.023c-.007-.114-.012-.26-.012-.394,0-.069,0-.134,0-.191-.274,0-.682.016-1.014.016s-.739-.015-.986-.016v.086h.039c.144,0,.315.025.316.248v2.112c0,.222-.172.247-.316.248h-.039v.085c.235,0,.7-.015,1.055-.015S967.977,324.014,968.237,324.014Zm.7-2.368c0-.294-.161-.306-.286-.306h-.072v-.121c.129,0,.379.016.625.016s.435-.016.649-.016c.508,0,.959.137.959.71a.761.761,0,0,1-.56.709l.689,1.031a.446.446,0,0,0,.391.242v.122c-.133,0-.262-.016-.395-.016s-.254.016-.379.016a11.283,11.283,0,0,1-.839-1.307h-.265v.863c0,.311.145.322.33.322h.073v.122c-.23,0-.463-.016-.693-.016-.194,0-.383.016-.584.016v-.122h.072c.15,0,.286-.068.286-.217Zm.516.935h.2c.4,0,.62-.153.62-.629a.55.55,0,0,0-.589-.588,2.052,2.052,0,0,0-.229.016Z" transform="translate(-958.411 -313.943)" fill="#f8f8f8"/>
      <path id="Path_5313" data-name="Path 5313" d="M1057.5,324.032c-.135,0-.263-.016-.4-.016s-.252.016-.392.009a11.248,11.248,0,0,1-.835-1.3h-.238v.845c0,.3.126.3.313.305h.09v.156h-.018c-.23,0-.464-.016-.693-.016-.193,0-.382.016-.584.016h-.018v-.156h.09c.145,0,.268-.064.268-.2v-2.048c0-.286-.143-.284-.268-.289h-.09v-.156h.018c.13,0,.379.016.625.016s.434-.016.649-.016c.508,0,.976.141.977.727a.772.772,0,0,1-.552.718l.677,1.014a.432.432,0,0,0,.379.234l.015,0v.154Zm-1.878-1.341h.276l0,.009a12.554,12.554,0,0,0,.824,1.3c.123,0,.252-.017.378-.017s.253.014.378.016v-.088a.461.461,0,0,1-.388-.247l-.7-1.049.02-.008a.742.742,0,0,0,.549-.694c0-.559-.435-.689-.941-.691-.213,0-.406.016-.649.016s-.476-.015-.608-.016v.086h.055c.125,0,.3.021.3.324v2.048c0,.162-.152.236-.3.236h-.055V324c.194,0,.378-.016.567-.016.225,0,.453.015.676.016v-.085h-.055c-.184,0-.348-.023-.348-.341v-.88Zm0-.111h-.018v-1.234h.016a1.971,1.971,0,0,1,.231-.016.569.569,0,0,1,.607.606c0,.481-.232.645-.638.645Zm.2-.035c.4,0,.6-.142.6-.61a.534.534,0,0,0-.572-.572,1.721,1.721,0,0,0-.211.014v1.168Zm4.417.675.007-.008V321.7a.332.332,0,0,0-.35-.379h-.089V321.2c.189,0,.374.016.564.016.165,0,.33-.016.5-.016v.121h-.06c-.169,0-.359.032-.359.512v1.834a2.662,2.662,0,0,0,.024.407h-.153l-2.075-2.314v1.661c0,.351.068.471.379.471h.069v.122c-.173,0-.347-.016-.52-.016s-.367.016-.548.016v-.122h.056c.278,0,.363-.189.363-.511v-1.7a.361.361,0,0,0-.366-.362h-.052V321.2c.153,0,.311.016.463.016.12,0,.238-.016.359-.016Z" transform="translate(-1044.584 -313.926)" fill="#f8f8f8"/>
      <path id="Path_5314" data-name="Path 5314" d="M1160.387,321.192l-.166-.006-2.045-2.28v1.615c0,.351.058.45.362.454h.085v.156h-.018c-.174,0-.347-.017-.52-.017s-.366.017-.548.017h-.018v-.156h.074c.266,0,.342-.172.345-.495v-1.7a.344.344,0,0,0-.348-.345h-.071v-.156h.018c.154,0,.311.016.464.016.118,0,.235-.016.37-.01l1.772,1.995V318.8c0-.32-.216-.36-.333-.362h-.107v-.156h.018c.191,0,.376.016.564.016.164,0,.33-.016.5-.016h.017v.156h-.078c-.166,0-.338.019-.342.495v1.834a2.582,2.582,0,0,0,.024.4l0,.02Zm-.153-.035h.132a2.754,2.754,0,0,1-.021-.389v-1.834c0-.484.2-.528.377-.53h.042v-.085c-.158,0-.318.016-.478.016-.185,0-.365-.014-.547-.016v.085h.072a.353.353,0,0,1,.368.4l-.006,1.524-.008.008-.012.013-1.794-2.027c-.12,0-.236.016-.358.016-.149,0-.3-.014-.447-.016v.085h.036a.38.38,0,0,1,.383.38v1.7c0,.324-.091.53-.38.531h-.039v.085c.174,0,.354-.015.531-.015s.336.015.5.015v-.085h-.051c-.317,0-.4-.139-.4-.49v-1.705Zm-.081-.837.012-.011Zm-.01-.008h0l0,0Zm1.287.226a1.6,1.6,0,0,0-.089.314c0,.121.17.141.3.141h.045v.122c-.161-.009-.326-.016-.488-.016-.145,0-.289.007-.435.016v-.122h.024a.364.364,0,0,0,.35-.262l.646-1.85a3.433,3.433,0,0,0,.149-.5,2.051,2.051,0,0,0,.366-.173.091.091,0,0,1,.032-.008.028.028,0,0,1,.029.013c.012.032.024.068.036.1l.741,2.108c.048.141.1.29.148.411a.257.257,0,0,0,.267.161h.024v.122c-.181-.009-.363-.016-.556-.016s-.4.007-.605.016v-.122h.045c.092,0,.25-.016.25-.117a1.29,1.29,0,0,0-.081-.29l-.157-.467h-.915Zm.588-1.786h-.008l-.375,1.141h.753Z" transform="translate(-1144.501 -311.026)" fill="#f8f8f8"/>
      <path id="Path_5315" data-name="Path 5315" d="M1275.853,320.3c-.182-.008-.363-.017-.555-.017s-.4.008-.6.017h-.018v-.158h.062c.094,0,.232-.021.232-.1a1.279,1.279,0,0,0-.08-.285l-.153-.456h-.889l-.125.407a1.692,1.692,0,0,0-.089.31c0,.1.152.122.286.122h.062v.158h-.018c-.161-.008-.326-.017-.486-.017-.144,0-.29.008-.434.017h-.019v-.158h.042a.346.346,0,0,0,.333-.25l.645-1.85a4.679,4.679,0,0,0,.16-.511,2.045,2.045,0,0,0,.366-.173.113.113,0,0,1,.039-.009.05.05,0,0,1,.045.023c.011.033.024.069.036.1l.742,2.108c.047.141.1.29.148.409a.236.236,0,0,0,.25.15h.041v.158Zm-1.142-.036c.2-.007.395-.015.588-.015s.362.008.538.015v-.084h-.006a.274.274,0,0,1-.283-.172c-.052-.122-.1-.272-.149-.413l-.742-2.108c-.012-.032-.024-.069-.035-.1,0,0,0,0-.006,0h-.007a.081.081,0,0,0-.023.005,1.5,1.5,0,0,1-.359.161,3.372,3.372,0,0,1-.15.5l-.645,1.85a.384.384,0,0,1-.367.274h-.006v.084c.138-.007.278-.015.418-.015.156,0,.315.008.469.015v-.084h-.026c-.131,0-.314-.017-.319-.159a1.594,1.594,0,0,1,.089-.32l.018.005-.018-.006.133-.431h.94l.162.479a1.224,1.224,0,0,1,.082.3c-.006.124-.176.132-.267.135h-.027Zm-.824-1.185.386-1.176h.022v.018h0V317.9h.012l.383,1.176Zm.049-.035h.705l-.351-1.08Zm.342-1.118.009,0Zm1.754-.255c-.3,0-.314.073-.375.367h-.121c.016-.113.036-.225.049-.343a2.383,2.383,0,0,0,.023-.342h.1c.032.121.133.117.241.117h2.08c.108,0,.209,0,.217-.125l.1.016c-.015.109-.031.218-.044.327s-.008.218-.008.326l-.121.045c-.008-.149-.028-.388-.3-.388h-.661v2.145c0,.311.141.346.334.346h.077v.122c-.157,0-.439-.016-.657-.016-.241,0-.524.016-.681.016v-.122h.076c.222,0,.335-.02.335-.338v-2.153Z" transform="translate(-1256.776 -310.191)" fill="#f8f8f8"/>
      <path id="Path_5316" data-name="Path 5316" d="M1364.274,319.586c-.158,0-.44-.016-.657-.016-.241,0-.523.016-.681.016h-.018v-.156h.094c.222-.005.311-.008.317-.321v-2.135h-.642v-.036h.678v2.171c0,.323-.131.355-.352.356h-.059v.086c.16,0,.43-.016.664-.016.21,0,.48.015.639.016v-.086h-.06c-.193,0-.351-.048-.351-.364v-2.163h.679c.271,0,.306.231.314.381l.088-.032c0-.105,0-.21.008-.316s.026-.207.041-.31l-.061-.01c-.019.117-.132.124-.233.122h-2.1c-.1,0-.2,0-.235-.118h-.066a2.39,2.39,0,0,1-.025.328c-.011.111-.031.218-.046.324h.086c.053-.281.088-.372.39-.368v.035c-.3.005-.292.056-.358.354l0,.014h-.155l0-.02c.017-.114.037-.226.049-.343a2.346,2.346,0,0,0,.024-.34v-.018h.127l0,.013c.028.1.1.1.205.1h2.1c.111,0,.193,0,.2-.109v-.019l.019,0,.114.018,0,.018c-.016.108-.032.217-.044.325s-.008.217-.008.325v.013l-.011,0-.143.052v-.023c-.01-.151-.026-.371-.281-.371h-.644V319.1c0,.3.125.325.316.329h.094v.156Zm.87-.139h.056c.146,0,.3-.02.3-.229v-2.112c0-.21-.152-.23-.3-.23h-.056v-.121c.157,0,.4.016.6.016s.444-.016.634-.016v.121h-.057c-.145,0-.3.02-.3.23v2.112c0,.21.154.229.3.229h.057v.122c-.194,0-.436-.016-.636-.016s-.436.016-.593.016Z" transform="translate(-1343.432 -309.481)" fill="#f8f8f8"/>
      <path id="Path_5317" data-name="Path 5317" d="M1469.211,322.551c-.195,0-.436-.017-.637-.017s-.435.017-.593.017h-.018V322.4h.074c.146,0,.279-.015.28-.212v-2.112c0-.2-.134-.21-.28-.213h-.074V319.7h.018c.157,0,.4.015.6.015s.443-.015.634-.015h.017v.155h-.073c-.148,0-.28.016-.282.213v2.112c0,.2.135.21.282.212h.073v.156Zm-.018-.035v-.085h-.038c-.145,0-.316-.025-.316-.248v-2.112c0-.223.171-.248.316-.248h.038v-.086c-.186,0-.419.016-.615.016s-.422-.015-.578-.016v.086h.039c.143,0,.315.025.315.248v2.112c0,.222-.172.248-.315.248H1468v.085c.156,0,.384-.015.575-.015S1469,322.515,1469.193,322.516Zm1.625-2.856a1.414,1.414,0,0,1,1.544,1.391,1.478,1.478,0,0,1-1.523,1.543,1.424,1.424,0,0,1-1.507-1.447A1.466,1.466,0,0,1,1470.818,319.66Zm.061,2.757c.782,0,.918-.69.918-1.277s-.317-1.3-.987-1.3c-.705,0-.915.629-.915,1.168C1469.9,321.727,1470.226,322.417,1470.879,322.417Z" transform="translate(-1446.269 -312.446)" fill="#f8f8f8"/>
      <path id="Path_5318" data-name="Path 5318" d="M1516.252,320.535a1.486,1.486,0,0,1,1.5-1.5v.035a1.45,1.45,0,0,0-1.47,1.47,1.408,1.408,0,0,0,1.491,1.429,1.461,1.461,0,0,0,1.506-1.526,1.4,1.4,0,0,0-1.527-1.373v-.035a1.433,1.433,0,0,1,1.562,1.408,1.5,1.5,0,0,1-1.54,1.561,1.445,1.445,0,0,1-1.525-1.464Zm.565-.142c0-.542.213-1.187.932-1.187.684,0,1,.728,1,1.321s-.139,1.294-.936,1.294v-.034c.766,0,.9-.672.9-1.26s-.315-1.284-.97-1.285c-.691,0-.9.614-.9,1.151,0,.718.328,1.392.966,1.394v.034C1517.148,321.82,1516.818,321.119,1516.817,320.393Zm5.2.734.008-.008v-1.511a.333.333,0,0,0-.351-.379h-.087v-.121c.189,0,.374.016.563.016.166,0,.331-.016.5-.016v.121h-.061c-.169,0-.359.032-.359.512v1.834a2.615,2.615,0,0,0,.024.407h-.153l-2.076-2.314v1.661c0,.351.068.471.378.471h.069v.122c-.174,0-.346-.016-.52-.016s-.367.016-.548.016V321.8h.056c.279,0,.362-.189.362-.511v-1.7a.36.36,0,0,0-.366-.362h-.052v-.121c.153,0,.31.016.463.016.121,0,.238-.016.359-.016Z" transform="translate(-1493.208 -311.833)" fill="#f8f8f8"/>
      <path id="Path_5319" data-name="Path 5319" d="M1631.164,321.192l-.167-.006-2.045-2.28v1.615c0,.35.058.45.361.453h.087v.156h-.018c-.175,0-.348-.016-.52-.016s-.366.016-.549.016h-.017v-.156h.074c.266,0,.342-.172.346-.493v-1.7a.345.345,0,0,0-.35-.345h-.07v-.155h.017c.154,0,.311.015.464.015.119,0,.236-.015.372-.01l1.77,1.994V318.8c0-.321-.216-.359-.334-.362h-.106v-.155h.018c.19,0,.375.015.563.015.165,0,.33-.015.5-.015h.017v.155h-.078c-.166,0-.338.02-.341.495v1.834a2.656,2.656,0,0,0,.023.4l0,.02h-.019Zm-.153-.035h.132a2.775,2.775,0,0,1-.021-.389v-1.834c0-.485.2-.528.376-.53h.044v-.085c-.159,0-.319.016-.48.016-.183,0-.364-.014-.546-.016v.085h.071a.354.354,0,0,1,.368.4l0,1.523-.007.008-.013.013-1.793-2.027c-.119,0-.237.016-.359.016-.148,0-.3-.014-.446-.016v.085h.036a.381.381,0,0,1,.384.38v1.7c0,.322-.09.529-.38.53h-.04v.085c.175,0,.355-.015.532-.015s.335.015.5.015v-.085h-.052c-.316,0-.4-.139-.4-.49v-1.706Zm-.081-.837.013-.011Zm-.01-.008h0l0,0Zm1.286.226a1.715,1.715,0,0,0-.088.314c0,.121.17.141.3.141h.045v.122c-.161-.009-.327-.016-.488-.016-.146,0-.29.007-.434.016v-.122h.023a.365.365,0,0,0,.351-.262l.646-1.85a3.338,3.338,0,0,0,.148-.5,2.081,2.081,0,0,0,.367-.173.087.087,0,0,1,.032-.008.026.026,0,0,1,.027.013c.012.032.025.068.037.1l.741,2.108c.048.141.1.29.149.411a.256.256,0,0,0,.266.161h.024v.122c-.182-.009-.363-.016-.557-.016s-.4.007-.6.016v-.122h.045c.092,0,.25-.016.25-.117a1.292,1.292,0,0,0-.081-.29l-.157-.467h-.915Zm.589-1.786h-.008l-.375,1.141h.754Z" transform="translate(-1602.122 -311.026)" fill="#f8f8f8"/>
      <path id="Path_5320" data-name="Path 5320" d="M1746.629,320.541c-.181-.007-.362-.016-.555-.016s-.4.009-.6.016h-.018v-.157h.061c.094,0,.233-.022.233-.1a1.29,1.29,0,0,0-.08-.285l-.153-.456h-.89l-.125.407a1.688,1.688,0,0,0-.088.309c0,.1.151.124.284.124h.062v.157h-.018c-.161-.007-.326-.016-.486-.016-.145,0-.289.009-.435.016h-.017v-.157h.04a.348.348,0,0,0,.335-.25l.645-1.85c.051-.15.124-.35.16-.511a2.157,2.157,0,0,0,.367-.174.106.106,0,0,1,.038-.008.045.045,0,0,1,.044.023c.012.032.024.068.037.1l.741,2.108c.048.141.1.29.149.41a.237.237,0,0,0,.249.15h.042v.157Zm-1.142-.035c.2-.008.4-.015.587-.015s.363.008.539.015v-.084h-.007a.275.275,0,0,1-.282-.172c-.053-.122-.1-.272-.149-.413l-.742-2.108c-.012-.032-.024-.069-.034-.1,0-.005,0-.005-.006-.005h-.008a.075.075,0,0,0-.023.006,1.549,1.549,0,0,1-.359.161,3.44,3.44,0,0,1-.15.5l-.645,1.85a.383.383,0,0,1-.367.274h-.006v.084c.139-.007.277-.015.418-.015.156,0,.315.008.47.015v-.084h-.027c-.131,0-.315-.016-.32-.159a1.7,1.7,0,0,1,.09-.319l.016.005-.016-.006.133-.431h.94l.161.479a1.243,1.243,0,0,1,.081.3c-.006.124-.175.132-.267.135h-.027Zm-.823-1.186.387-1.175h.021v.018h0v-.018h.012l.381,1.175Zm.049-.035h.7l-.351-1.08Zm.342-1.118.008,0Zm2.592,1.962c0,.161.112.209.241.226a2.938,2.938,0,0,0,.533-.008.577.577,0,0,0,.386-.218.916.916,0,0,0,.125-.29h.117c-.044.23-.1.456-.149.685-.354,0-.709-.016-1.063-.016s-.709.016-1.064.016V320.4h.055c.146,0,.3-.019.3-.27v-2.071c0-.21-.158-.23-.3-.23h-.055v-.121c.213,0,.423.016.636.016s.407-.016.613-.016v.121h-.1c-.153,0-.273,0-.273.217Z" transform="translate(-1714.398 -310.436)" fill="#f8f8f8"/>
      <path id="Path_5321" data-name="Path 5321" d="M1851.616,320.665c-.355,0-.71-.016-1.063-.016s-.71.016-1.065.016h-.017v-.156h.073c.146,0,.285-.013.286-.252v-2.072c0-.2-.139-.209-.286-.212h-.073v-.155h.017c.214,0,.424.015.637.015s.406-.015.613-.015h.017v.155h-.118c-.156,0-.253,0-.257.2v2.08c0,.15.1.191.226.208.071.005.146.008.223.008a2.861,2.861,0,0,0,.305-.016.56.56,0,0,0,.375-.21.9.9,0,0,0,.122-.285l0-.013h.151l0,.021c-.046.231-.1.456-.15.685l0,.014h-.014Zm-.014-.035c.046-.219.1-.432.143-.65h-.083a.921.921,0,0,1-.125.284.6.6,0,0,1-.4.224,3.026,3.026,0,0,1-.309.017c-.078,0-.154,0-.227-.009-.131-.015-.258-.07-.258-.243v-2.08c0-.224.142-.235.292-.235h.083v-.086c-.2,0-.394.016-.6.016s-.413-.015-.62-.016v.086h.039c.144,0,.32.025.32.247v2.072c0,.261-.175.288-.32.288h-.039v.085c.349,0,.7-.015,1.047-.015S1851.253,320.63,1851.6,320.63Zm.115-2.91a.424.424,0,1,1-.425.426A.417.417,0,0,1,1851.717,317.72Zm0,.77a.345.345,0,1,0-.337-.344A.342.342,0,0,0,1851.717,318.49Zm-.211-.12v-.021c.052-.007.062-.006.062-.038V318c0-.044,0-.059-.06-.057v-.022h.217c.075,0,.143.035.143.113a.133.133,0,0,1-.1.128l.069.1a.442.442,0,0,0,.094.1v.014h-.083c-.04,0-.075-.084-.153-.2h-.047v.141c0,.028.01.026.062.034v.021h-.205Zm.143-.224h.05c.055,0,.081-.042.081-.108a.08.08,0,0,0-.083-.091h-.047Z" transform="translate(-1817.115 -310.56)" fill="#f8f8f8"/>
    </g>
  </g>
</svg>
