<svg xmlns="http://www.w3.org/2000/svg" width="35.977" height="33.716" viewBox="0 0 35.977 33.716">
  <g id="american-express-1" transform="translate(0 0)">
    <path id="Path_5289" data-name="Path 5289" d="M4.974,46.781H4.861c0-.056-.028-.14-.028-.168s0-.084-.085-.084H4.578v.252H4.494v-.588h.254c.113,0,.2.028.2.14a.164.164,0,0,1-.056.14.146.146,0,0,1,.056.112V46.7c0,.028,0,.028.028.028v.056Zm-.113-.42c0-.084-.057-.084-.085-.084h-.2v.168h.169C4.8,46.445,4.861,46.416,4.861,46.361Zm.48.112a.631.631,0,0,0-.65-.617.625.625,0,0,0-.621.617.635.635,0,1,0,1.271,0Zm-.085,0a.541.541,0,0,1-.565.532.517.517,0,0,1-.537-.532.534.534,0,0,1,.537-.533A.56.56,0,0,1,5.256,46.473ZM40.047,35.15c0,.841-.537,1.233-1.5,1.233H36.715v-.841H38.55a.589.589,0,0,0,.367-.084.356.356,0,0,0,.113-.252.425.425,0,0,0-.113-.28.493.493,0,0,0-.339-.084c-.875-.028-1.977.028-1.977-1.205a1.187,1.187,0,0,1,1.355-1.177h1.892V33.3H38.1a.674.674,0,0,0-.367.056.4.4,0,0,0-.141.308.306.306,0,0,0,.2.281,1.454,1.454,0,0,0,.367.056h.508a1.61,1.61,0,0,1,1.1.308A1.205,1.205,0,0,1,40.047,35.15Zm-3.982-.841a1.61,1.61,0,0,0-1.1-.308h-.508a1.458,1.458,0,0,1-.367-.056.305.305,0,0,1-.2-.281.328.328,0,0,1,.141-.308A.673.673,0,0,1,34.4,33.3H36.15v-.841H34.258c-1.017,0-1.356.617-1.356,1.177,0,1.233,1.1,1.177,1.977,1.205a.491.491,0,0,1,.339.084.426.426,0,0,1,.113.28.355.355,0,0,1-.113.252.646.646,0,0,1-.367.084H33.015v.841h1.836c.96,0,1.5-.392,1.5-1.233A1.2,1.2,0,0,0,36.065,34.309ZM32.451,35.57H30.22v-.785h2.174V34H30.22v-.729h2.231v-.813H29.288v3.924h3.163V35.57Zm-4.179-2.915a2.386,2.386,0,0,0-1.158-.2H24.939v3.924h.96V34.953h1.017c.339,0,.537.028.678.168a1.243,1.243,0,0,1,.169.785v.476h.932v-.757a1.285,1.285,0,0,0-.141-.729,1.1,1.1,0,0,0-.48-.336,1.08,1.08,0,0,0,.678-1.037A.879.879,0,0,0,28.271,32.656Zm-5.365-.2H19.884L18.67,33.748l-1.158-1.289H13.7v3.924h3.756l1.214-1.289,1.158,1.289h1.836V35.066H22.85c.819,0,1.638-.224,1.638-1.317,0-1.065-.847-1.289-1.582-1.289Zm4.6,1.626a1.182,1.182,0,0,1-.452.056l-1.158.028v-.9h1.158a.771.771,0,0,1,.452.084.356.356,0,0,1,.2.336A.489.489,0,0,1,27.509,34.085Zm-4.6.2H21.663V33.272h1.243c.339,0,.565.14.565.477A.51.51,0,0,1,22.906,34.281Zm-3.643.14,1.468-1.541v3.167ZM16.975,35.57H14.632v-.785h2.09V34h-2.09v-.729H17l1.045,1.149Zm20.445-5.942H36.065l-1.779-2.943v2.943h-1.92L32,28.76H30.022l-.367.869h-1.1a2.053,2.053,0,0,1-1.383-.449,2.041,2.041,0,0,1-.48-1.485,2.016,2.016,0,0,1,.508-1.541,1.926,1.926,0,0,1,1.44-.448h.9v.841h-.9a1,1,0,0,0-.734.224,1.264,1.264,0,0,0-.254.9,1.4,1.4,0,0,0,.254.925.947.947,0,0,0,.649.2h.424L30.333,25.7h1.412l1.581,3.7V25.7h1.469l1.666,2.719V25.7h.96v3.924h0ZM26.21,25.7h-.96v3.924h.96V25.7Zm-2.005.168a2.288,2.288,0,0,0-1.129-.168H20.9v3.924h.932V28.2h1.017a.973.973,0,0,1,.706.168,1.183,1.183,0,0,1,.141.757v.5h.96v-.785a1.04,1.04,0,0,0-.169-.7,1.181,1.181,0,0,0-.452-.336,1.113,1.113,0,0,0,.678-1.037.969.969,0,0,0-.508-.9Zm-3.982,2.943h-2.2v-.785h2.174v-.813H18.02v-.7h2.2V25.7H17.06v3.924h3.163v-.813ZM16.354,25.7H14.8l-1.158,2.662L12.4,25.7H10.876v3.7l-1.61-3.7H7.854L6.16,29.628H7.176l.367-.869H9.52l.367.869h1.92V26.546l1.384,3.083h.819l1.384-3.083v3.083h.96V25.7h0ZM31.66,27.919l-.65-1.541-.649,1.541Zm-8.19-.616a.869.869,0,0,1-.48.084H21.833v-.869H22.99a1.256,1.256,0,0,1,.48.056.416.416,0,0,1,.17.364A.385.385,0,0,1,23.471,27.3Zm-15.588.616.65-1.541.65,1.541ZM39.821,13.4H6.131V27.527L7.289,24.92H9.746l.339.645V24.92h2.88l.65,1.4.621-1.4h9.178a1.678,1.678,0,0,1,1.073.308V24.92H27v.308a3.385,3.385,0,0,1,1.581-.308h3.643l.339.645V24.92h2.683l.4.645V24.92h2.626v5.493H35.614l-.508-.841v.841H31.8l-.367-.9h-.819l-.367.9H28.526A3.405,3.405,0,0,1,27,30.077v.336H22.906V29.152c0-.168-.028-.2-.141-.2h-.141v1.457H14.716v-.7l-.282.7H12.768l-.282-.673v.673H9.294l-.339-.9H8.137l-.367.9H6.131V46.977h33.69V36.915a3.481,3.481,0,0,1-1.384.252H35.981v-.336a2.19,2.19,0,0,1-1.271.336H26.972V35.907c0-.168-.028-.168-.17-.168h-.141v1.429H24.12V35.682a3.128,3.128,0,0,1-1.327.2H22.51v1.289H19.4l-.734-.841-.819.841h-5V31.675h5.083l.734.84.791-.84h3.417a2.143,2.143,0,0,1,1.327.336v-.336h3.05a2.43,2.43,0,0,1,1.3.336v-.336h4.6v.336a1.888,1.888,0,0,1,1.158-.336h2.57v.336a2.053,2.053,0,0,1,1.186-.336h1.751Z" transform="translate(-4.07 -13.401)" fill="#f8f8f8" fill-rule="evenodd"/>
  </g>
</svg>
