<svg xmlns="http://www.w3.org/2000/svg" width="53.594" height="19.176" viewBox="0 0 53.594 19.176">
  <g id="icici-1" transform="translate(0 0)">
    <path id="Path_5323" data-name="Path 5323" d="M22.059,74.169l-2.331,8.7H23l2.331-8.7Zm10.252,3.3h3.033a4.184,4.184,0,0,0,.047-1.047,2.333,2.333,0,0,0-.423-1.182,3.007,3.007,0,0,0-1.235-.967,5.759,5.759,0,0,0-2.4-.4,7.1,7.1,0,0,0-1.96.275A5.868,5.868,0,0,0,27.585,75a6.028,6.028,0,0,0-1.452,1.477,6.712,6.712,0,0,0-.968,2.148,3.344,3.344,0,0,0,.442,3.2,4.361,4.361,0,0,0,3.359,1.208,6.432,6.432,0,0,0,1.993-.228,6.866,6.866,0,0,0,1.767-.765,6.129,6.129,0,0,0,1.39-1.162,4.242,4.242,0,0,0,.847-1.416H31.779a2.7,2.7,0,0,1-.468.7,2.372,2.372,0,0,1-.547.436,1.983,1.983,0,0,1-.572.221,2.606,2.606,0,0,1-.53.06,1.192,1.192,0,0,1-.946-.356,1.58,1.58,0,0,1-.372-.893,3.071,3.071,0,0,1,.117-1.168,4.237,4.237,0,0,1,.524-1.168,3.44,3.44,0,0,1,.82-.892,1.679,1.679,0,0,1,1.031-.356c.08,0,.2,0,.345.007a1.054,1.054,0,0,1,.457.127,1.174,1.174,0,0,1,.424.416,1.964,1.964,0,0,1,.249.873Zm5.005-3.3-2.331,8.7H38.26l2.331-8.7Zm10.252,3.3H50.6a4.159,4.159,0,0,0,.046-1.047,2.322,2.322,0,0,0-.423-1.182,3,3,0,0,0-1.235-.967,5.757,5.757,0,0,0-2.405-.4,7.1,7.1,0,0,0-1.96.275A5.873,5.873,0,0,0,42.842,75a6.037,6.037,0,0,0-1.452,1.477,6.705,6.705,0,0,0-.968,2.148,3.344,3.344,0,0,0,.442,3.2,4.361,4.361,0,0,0,3.359,1.208,6.432,6.432,0,0,0,1.993-.228,6.875,6.875,0,0,0,1.767-.765,6.129,6.129,0,0,0,1.39-1.162,4.266,4.266,0,0,0,.847-1.416H47.036a2.7,2.7,0,0,1-.468.7,2.392,2.392,0,0,1-.547.436,1.983,1.983,0,0,1-.572.221,2.6,2.6,0,0,1-.529.06,1.193,1.193,0,0,1-.946-.356,1.584,1.584,0,0,1-.372-.893,3.077,3.077,0,0,1,.117-1.168,4.229,4.229,0,0,1,.524-1.168,3.44,3.44,0,0,1,.82-.892,1.678,1.678,0,0,1,1.031-.356q.121,0,.345.007a1.054,1.054,0,0,1,.456.127,1.175,1.175,0,0,1,.425.416,1.971,1.971,0,0,1,.249.873Zm5-3.3-2.331,8.7h3.275l2.331-8.7ZM14.559,68.008c.716-.879.89-1.925.387-2.327s-1.5-.013-2.213.867-.89,1.925-.387,2.327S13.843,68.887,14.559,68.008Zm1.6,9.683c3.754-4.7,4.6-10.283,1.892-12.43s-7.986-.067-11.74,4.632-4.6,10.283-1.892,12.431a4.044,4.044,0,0,0,2.279.834A2.686,2.686,0,0,0,8.056,81.7a39.437,39.437,0,0,0,1.95-6.909c.144-1.565-.484-1.636-.843-1.493A5.682,5.682,0,0,1,7.72,73.8c-.433.025-.482-.241-.241-.553s3.636-3.526,4.887-3.37a1.24,1.24,0,0,1,.915,1.733c-.217.626-.939,3.322-1.228,4.718a18.75,18.75,0,0,0-.53,4.092,1.138,1.138,0,0,0,.593.989,17.436,17.436,0,0,0,4.042-3.723Z" transform="translate(-2.831 -63.981)" fill="#5b5f60" fill-rule="evenodd"/>
    <path id="Path_5324" data-name="Path 5324" d="M66.164,96.223l-2.331,8.7h3.275l2.331-8.7Zm10.253,3.3h3.033a4.16,4.16,0,0,0,.047-1.047,2.329,2.329,0,0,0-.423-1.181,3,3,0,0,0-1.235-.967,5.756,5.756,0,0,0-2.4-.4,7.105,7.105,0,0,0-1.96.275,5.871,5.871,0,0,0-1.783.853,6.025,6.025,0,0,0-1.452,1.476,6.714,6.714,0,0,0-.968,2.148,3.343,3.343,0,0,0,.442,3.2,4.36,4.36,0,0,0,3.359,1.209,6.431,6.431,0,0,0,1.993-.228,6.852,6.852,0,0,0,1.767-.765,6.14,6.14,0,0,0,1.39-1.161,4.258,4.258,0,0,0,.848-1.416H75.884a2.715,2.715,0,0,1-.468.7,2.386,2.386,0,0,1-.547.436,1.984,1.984,0,0,1-.572.221,2.606,2.606,0,0,1-.529.06,1.192,1.192,0,0,1-.946-.356,1.582,1.582,0,0,1-.372-.893,3.074,3.074,0,0,1,.117-1.168,4.242,4.242,0,0,1,.524-1.168,3.444,3.444,0,0,1,.82-.893,1.677,1.677,0,0,1,1.031-.356c.08,0,.2,0,.346.007a1.054,1.054,0,0,1,.456.127,1.172,1.172,0,0,1,.424.416A1.984,1.984,0,0,1,76.416,99.526Zm5-3.3-2.331,8.7h3.274l2.331-8.7Zm10.252,3.3h3.034a4.164,4.164,0,0,0,.046-1.047A2.318,2.318,0,0,0,94.33,97.3a3,3,0,0,0-1.235-.967,5.76,5.76,0,0,0-2.4-.4,7.105,7.105,0,0,0-1.96.275,5.865,5.865,0,0,0-1.783.853,6.021,6.021,0,0,0-1.452,1.476,6.72,6.72,0,0,0-.968,2.148,3.344,3.344,0,0,0,.442,3.2,4.36,4.36,0,0,0,3.359,1.209,6.433,6.433,0,0,0,1.993-.228,6.848,6.848,0,0,0,1.767-.765,6.144,6.144,0,0,0,1.39-1.161,4.256,4.256,0,0,0,.847-1.416H91.141a2.7,2.7,0,0,1-.468.7,2.371,2.371,0,0,1-.547.436,1.994,1.994,0,0,1-.573.221,2.6,2.6,0,0,1-.529.06,1.191,1.191,0,0,1-.946-.356,1.58,1.58,0,0,1-.372-.893,3.066,3.066,0,0,1,.116-1.168,4.251,4.251,0,0,1,.524-1.168,3.453,3.453,0,0,1,.82-.893A1.678,1.678,0,0,1,90.2,98.1c.08,0,.2,0,.345.007a1.054,1.054,0,0,1,.457.127,1.172,1.172,0,0,1,.424.416A1.971,1.971,0,0,1,91.673,99.526Zm5.005-3.3-2.331,8.7h3.275l2.331-8.7Z" transform="translate(-46.359 -86.468)" fill="#f8f8f8" fill-rule="evenodd"/>
    <path id="Path_5325" data-name="Path 5325" d="M16.573,66.5c.716-.88.89-1.925.387-2.327s-1.5-.013-2.213.867-.89,1.925-.387,2.327S15.857,67.377,16.573,66.5Zm1.6,9.683c3.754-4.7,4.6-10.283,1.892-12.431s-7.986-.067-11.74,4.632-4.6,10.283-1.892,12.43a4.045,4.045,0,0,0,2.279.834,2.69,2.69,0,0,0,1.36-1.456,39.432,39.432,0,0,0,1.95-6.909c.144-1.565-.484-1.636-.843-1.492a5.689,5.689,0,0,1-1.444.506c-.433.024-.482-.241-.241-.554s3.636-3.527,4.887-3.37a1.24,1.24,0,0,1,.915,1.733c-.217.626-.939,3.322-1.228,4.718a18.781,18.781,0,0,0-.53,4.092,1.137,1.137,0,0,0,.593.989A17.425,17.425,0,0,0,18.172,76.18Z" transform="translate(-4.268 -62.902)" fill="#f8f8f8" fill-rule="evenodd"/>
    <path id="Path_5326" data-name="Path 5326" d="M21.8,66.5c.716-.88.89-1.925.387-2.327s-1.5-.013-2.213.867-.89,1.925-.387,2.327S21.079,67.378,21.8,66.5Zm2.3,7.537c3.12-3.939,3.588-8.621,1.042-10.422s-7.168-.056-10.288,3.884S11.258,76.118,13.8,77.919a3.992,3.992,0,0,0,2.042.7,29.378,29.378,0,0,0,1.4-5.333c.144-1.565-.484-1.636-.843-1.492a5.69,5.69,0,0,1-1.444.506c-.433.024-.482-.241-.241-.554s3.636-3.527,4.887-3.37a1.24,1.24,0,0,1,.915,1.733c-.217.626-.939,3.322-1.228,4.718a30.019,30.019,0,0,0-.525,3.3,12.935,12.935,0,0,0,5.329-4.083Z" transform="translate(-9.49 -62.904)" fill="#fff" fill-rule="evenodd"/>
  </g>
</svg>
