<svg xmlns="http://www.w3.org/2000/svg" width="32" height="32" viewBox="0 0 32 32">
  <g id="Group_12406" data-name="Group 12406" transform="translate(-0.044 0.193)">
    <circle id="Ellipse_227" data-name="Ellipse 227" cx="16" cy="16" r="16" transform="translate(0.044 -0.193)" fill="#fff" opacity="0.228"/>
    <path id="Icon_awesome-instagram" data-name="Icon awesome-instagram" d="M8.238,6.252a4.225,4.225,0,1,0,4.225,4.225A4.219,4.219,0,0,0,8.238,6.252Zm0,6.972a2.747,2.747,0,1,1,2.747-2.747,2.752,2.752,0,0,1-2.747,2.747ZM13.622,6.08a.986.986,0,1,1-.986-.986A.983.983,0,0,1,13.622,6.08Zm2.8,1a4.877,4.877,0,0,0-1.331-3.453A4.909,4.909,0,0,0,11.636,2.3c-1.361-.077-5.439-.077-6.8,0A4.9,4.9,0,0,0,1.384,3.623,4.893,4.893,0,0,0,.053,7.076c-.077,1.361-.077,5.439,0,6.8a4.877,4.877,0,0,0,1.331,3.453A4.915,4.915,0,0,0,4.837,18.66c1.361.077,5.439.077,6.8,0a4.877,4.877,0,0,0,3.453-1.331,4.909,4.909,0,0,0,1.331-3.453c.077-1.361.077-5.435,0-6.8Zm-1.758,8.256A2.781,2.781,0,0,1,13.1,16.9c-1.085.43-3.659.331-4.858.331s-3.777.1-4.858-.331a2.781,2.781,0,0,1-1.567-1.567c-.43-1.085-.331-3.659-.331-4.858s-.1-3.777.331-4.858A2.781,2.781,0,0,1,3.381,4.053c1.085-.43,3.659-.331,4.858-.331s3.777-.1,4.858.331A2.781,2.781,0,0,1,14.663,5.62c.43,1.085.331,3.659.331,4.858S15.093,14.254,14.663,15.336Z" transform="translate(7.807 5.329)" fill="#d3d3d3"/>
  </g>
</svg>
