<svg xmlns="http://www.w3.org/2000/svg" width="39.424" height="23.616" viewBox="0 0 39.424 23.616">
  <path id="Icon_payment-mastercard-alt" data-name="Icon payment-mastercard-alt" d="M44.544,28.158a11.806,11.806,0,0,0-1.562-5.953,13.56,13.56,0,0,0-4.294-4.294,12.535,12.535,0,0,0-5.952-1.561,11.262,11.262,0,0,0-7.124,2.439,11.867,11.867,0,0,1,3.708,6.148H28.247a11.24,11.24,0,0,0-3.415-5.562,11.228,11.228,0,0,0-3.415,5.562H20.343a11.858,11.858,0,0,1,3.708-6.148,11.269,11.269,0,0,0-7.124-2.439,12.528,12.528,0,0,0-5.952,1.561,13.54,13.54,0,0,0-4.294,4.294,12.127,12.127,0,0,0,0,11.905A13.527,13.527,0,0,0,10.975,38.4a12.513,12.513,0,0,0,5.952,1.561,11.262,11.262,0,0,0,7.124-2.439,12.3,12.3,0,0,1-3.611-5.66h1.074a11.876,11.876,0,0,0,3.318,5.075,11.893,11.893,0,0,0,3.318-5.075h1.074a12.329,12.329,0,0,1-3.611,5.66,11.253,11.253,0,0,0,7.124,2.439A12.517,12.517,0,0,0,38.689,38.4a13.546,13.546,0,0,0,4.294-4.294,11.808,11.808,0,0,0,1.561-5.953Zm-34.252-2.83h1.854l-.976,5.66H10l.683-4.294L9.121,30.987H8.243V26.693l-.781,4.294H6.291l.976-5.66H9.024v3.513Zm5.465,2.342a4.628,4.628,0,0,1-.1.878c-.065.456-.132.879-.2,1.269a6.535,6.535,0,0,1-.2.879v.293h-.976V30.5a1.413,1.413,0,0,1-1.269.586,1.053,1.053,0,0,1-.781-.293,1.58,1.58,0,0,1-.293-.976,1.526,1.526,0,0,1,.488-1.269,2.777,2.777,0,0,1,1.659-.488h.488v-.294c0-.259-.261-.39-.781-.39a5.481,5.481,0,0,0-1.269.2c.063-.259.13-.586.2-.976A3.977,3.977,0,0,1,14.1,26.3q1.659,0,1.659,1.366Zm-1.366,1.269H14.1c-.651,0-.976.229-.976.683,0,.326.13.488.39.488a.661.661,0,0,0,.586-.293A1.193,1.193,0,0,0,14.391,28.938ZM19.173,26.4l-.2,1.074a3,3,0,0,0-.878-.1c-.391,0-.586.131-.586.39a.392.392,0,0,0,.1.293l.39.2a1.444,1.444,0,0,1,.878,1.269q0,1.562-1.854,1.561a5.765,5.765,0,0,1-1.269-.1c.063-.259.13-.618.2-1.074a5.287,5.287,0,0,0,1.074.2c.454,0,.683-.13.683-.39a.4.4,0,0,0-.1-.293,1.247,1.247,0,0,0-.488-.293,1.314,1.314,0,0,1-.878-1.269Q16.244,26.3,18,26.3a4.546,4.546,0,0,1,1.172.1Zm1.854,0h.586l-.1,1.171h-.683a3.684,3.684,0,0,1-.1.878,3.05,3.05,0,0,1-.049.39.769.769,0,0,1-.146.39v.39a.345.345,0,0,0,.39.39.863.863,0,0,0,.39-.1l-.2,1.074a2.955,2.955,0,0,1-.878.1.862.862,0,0,1-.976-.976,4.576,4.576,0,0,1,.2-1.269l.488-3.123h1.171l-.1.684Zm4.391,1.561a6.155,6.155,0,0,1-.1,1.171H22.881a.942.942,0,0,0,.2.683,1.193,1.193,0,0,0,.878.293,2.586,2.586,0,0,0,1.269-.39l-.2,1.171a3.448,3.448,0,0,1-1.269.2,1.811,1.811,0,0,1-2.049-2.049,2.916,2.916,0,0,1,.586-1.952,1.768,1.768,0,0,1,1.464-.781,1.721,1.721,0,0,1,1.269.488,1.6,1.6,0,0,1,.39,1.171Zm-2.44.2h1.366v-.293l-.1-.2a.289.289,0,0,0-.1-.2.275.275,0,0,1-.2-.1h-.2q-.585,0-.781.781ZM28.443,26.4a7.271,7.271,0,0,0-.488,1.366c-.261-.064-.488.1-.683.488a19.212,19.212,0,0,0-.488,2.732H25.516l.1-.293Q26,27.964,26.2,26.4H27.37l-.1.683a1.247,1.247,0,0,1,.586-.586.425.425,0,0,1,.585-.1Zm4.1-.878-.2,1.171a2.431,2.431,0,0,0-1.074-.293,1.309,1.309,0,0,0-1.171.586,2.5,2.5,0,0,0-.39,1.561,1.346,1.346,0,0,0,.293.976.924.924,0,0,0,.781.39,2.433,2.433,0,0,0,1.074-.293l-.2,1.269a2.424,2.424,0,0,1-1.074.2,1.952,1.952,0,0,1-1.561-.683,2.386,2.386,0,0,1-.586-1.757,3.773,3.773,0,0,1,.781-2.439,2.24,2.24,0,0,1,1.952-.976,4.7,4.7,0,0,1,1.366.293Zm3.513,2.147a3.064,3.064,0,0,1-.049.39,2.9,2.9,0,0,0-.049.488c-.065.326-.132.766-.2,1.317a6.894,6.894,0,0,1-.2,1.122h-.976V30.5a1.413,1.413,0,0,1-1.269.586,1.053,1.053,0,0,1-.781-.293,1.58,1.58,0,0,1-.293-.976,1.526,1.526,0,0,1,.488-1.269A2.618,2.618,0,0,1,34.3,28.06h.488a.4.4,0,0,0,.1-.293c0-.259-.261-.39-.781-.39a5.482,5.482,0,0,0-1.269.2,3.163,3.163,0,0,1,.2-.976A3.977,3.977,0,0,1,34.4,26.3q1.658,0,1.658,1.366Zm-1.366,1.269H34.4c-.651,0-.976.229-.976.683,0,.326.13.488.39.488a.661.661,0,0,0,.586-.293A1.193,1.193,0,0,0,34.688,28.938ZM39.079,26.4a2.6,2.6,0,0,0-.488,1.366c-.261-.064-.488.1-.683.488a19.664,19.664,0,0,0-.488,2.732H36.152l.1-.293q.386-2.133.586-4.294h1.171a2.2,2.2,0,0,1-.1.683,1.247,1.247,0,0,1,.586-.586.7.7,0,0,1,.585-.1ZM42.1,25.327h1.269l-.976,5.66H41.226l.1-.39a1.3,1.3,0,0,1-1.074.488,1.143,1.143,0,0,1-1.074-.488,2.327,2.327,0,0,1-.488-1.366,3,3,0,0,1,.683-2.049,1.53,1.53,0,0,1,1.366-.781,1.686,1.686,0,0,1,1.171.586l.2-1.659Zm-.488,3.025c0-.586-.23-.878-.683-.878a.823.823,0,0,0-.683.488,2.063,2.063,0,0,0-.2,1.074q0,.878.586.879a.845.845,0,0,0,.683-.39,1.938,1.938,0,0,0,.292-1.171Z" transform="translate(-5.12 -16.35)" fill="#f8f8f8"/>
</svg>
