<svg width="85" height="85" viewBox="0 0 85 85" fill="none" xmlns="http://www.w3.org/2000/svg">
<path d="M42.1416 18C41.6691 18.0206 41.2112 18.17 40.8175 18.432C40.4095 18.656 39.9975 18.932 39.5915 19.206C39.1855 19.48 38.7915 19.769 38.4555 19.982C38.2452 20.1197 38.0237 20.2398 37.7935 20.341C37.5437 20.3655 37.2923 20.3709 37.0415 20.357C36.6475 20.338 36.1675 20.297 35.6765 20.257C35.1855 20.217 34.6876 20.182 34.2216 20.192C33.7505 20.1417 33.2755 20.2416 32.8646 20.4774C32.4537 20.7132 32.1278 21.0729 31.9335 21.505C31.6925 21.905 31.4755 22.36 31.2635 22.805C31.0515 23.25 30.8475 23.678 30.6635 24.028C30.5495 24.2529 30.4181 24.4685 30.2705 24.673C30.0665 24.8201 29.8512 24.9509 29.6266 25.064C29.2766 25.244 28.8365 25.447 28.3925 25.664C27.9485 25.881 27.4995 26.1 27.1015 26.341C26.6687 26.5311 26.3077 26.8543 26.071 27.2636C25.8344 27.6729 25.7344 28.147 25.7855 28.617C25.7755 29.081 25.8125 29.58 25.8505 30.07C25.8885 30.56 25.9295 31.038 25.9505 31.431C25.9651 31.6817 25.9597 31.9331 25.9345 32.183C25.8287 32.4118 25.7061 32.6324 25.5675 32.843C25.3545 33.174 25.0785 33.572 24.7995 33.978C24.5205 34.384 24.2465 34.802 24.0215 35.209C23.741 35.5895 23.5896 36.0498 23.5896 36.5225C23.5896 36.9952 23.741 37.4555 24.0215 37.836C24.2455 38.243 24.5215 38.663 24.7995 39.068C25.0775 39.473 25.3545 39.862 25.5675 40.193C25.706 40.4036 25.8287 40.6242 25.9345 40.853C25.9593 41.1029 25.9646 41.3543 25.9505 41.605C25.9315 41.998 25.8905 42.485 25.8505 42.975C25.8105 43.465 25.7755 43.963 25.7855 44.428C25.7344 44.898 25.8344 45.3721 26.071 45.7814C26.3077 46.1907 26.6687 46.5139 27.1015 46.704C27.3365 46.846 27.5905 46.982 27.8495 47.113L21.1125 58.775C21.0362 58.9068 20.9973 59.057 21.0001 59.2093C21.003 59.3616 21.0475 59.5102 21.1287 59.6391C21.21 59.7679 21.325 59.8721 21.4612 59.9403C21.5974 60.0085 21.7497 60.0381 21.9015 60.026L29.0915 59.441L32.1795 65.948C32.2451 66.0844 32.3465 66.2003 32.4728 66.2836C32.5992 66.3668 32.7458 66.4141 32.897 66.4205C33.0481 66.4268 33.1982 66.392 33.3311 66.3197C33.464 66.2474 33.5748 66.1404 33.6515 66.01L40.3935 54.359C40.5335 54.446 40.6735 54.535 40.8125 54.612C41.2061 54.8743 41.664 55.0237 42.1365 55.044C42.6066 55.0236 43.0619 54.8741 43.4525 54.612C43.6125 54.524 43.7725 54.423 43.9335 54.322L50.6105 65.869C50.6868 66.0012 50.7978 66.1099 50.9314 66.1834C51.0651 66.257 51.2164 66.2925 51.3688 66.2861C51.5213 66.2797 51.669 66.2317 51.7961 66.1472C51.9232 66.0627 52.0246 65.9451 52.0895 65.807L55.1775 59.307L62.3695 59.886C62.5211 59.8976 62.6729 59.8677 62.8087 59.7993C62.9445 59.731 63.059 59.6269 63.14 59.4983C63.221 59.3697 63.2653 59.2214 63.2682 59.0695C63.2711 58.9175 63.2325 58.7676 63.1565 58.636L56.4745 47.087C56.7125 46.965 56.9455 46.84 57.1625 46.709C57.5954 46.5189 57.9564 46.1957 58.1931 45.7864C58.4297 45.3771 58.5297 44.903 58.4785 44.433C58.4875 43.969 58.4595 43.47 58.4215 42.98C58.3835 42.49 58.3345 42.004 58.3155 41.61C58.3007 41.3591 58.309 41.1074 58.3405 40.858C58.4421 40.6284 58.5625 40.4077 58.7005 40.198C58.9135 39.867 59.1895 39.478 59.4685 39.073C59.7475 38.668 60.0285 38.248 60.2525 37.841C60.5293 37.459 60.6783 36.9993 60.6783 36.5275C60.6783 36.0557 60.5293 35.596 60.2525 35.214C60.0285 34.807 59.7465 34.388 59.4685 33.983C59.1905 33.578 58.9135 33.183 58.7005 32.848C58.5631 32.6379 58.4428 32.4172 58.3405 32.188C58.3113 31.9385 58.303 31.6869 58.3155 31.436C58.3345 31.043 58.3835 30.565 58.4215 30.075C58.4595 29.585 58.4885 29.087 58.4785 28.622C58.5297 28.152 58.4297 27.6779 58.1931 27.2686C57.9564 26.8593 57.5954 26.5361 57.1625 26.346C56.7625 26.105 56.3165 25.881 55.8725 25.669C55.4285 25.457 54.9885 25.254 54.6385 25.069C54.4133 24.9557 54.1974 24.825 53.9925 24.678C53.845 24.4735 53.7136 24.2579 53.5995 24.033C53.4185 23.683 53.2156 23.254 52.9996 22.81C52.7836 22.366 52.5705 21.91 52.3295 21.51C52.1353 21.0779 51.8094 20.7182 51.3985 20.4824C50.9876 20.2466 50.5126 20.1467 50.0415 20.197C49.5765 20.187 49.0785 20.224 48.5865 20.262C48.0945 20.3 47.6156 20.341 47.2216 20.362C46.9709 20.3763 46.7194 20.371 46.4695 20.346C46.2394 20.2447 46.018 20.1247 45.8076 19.987C45.4756 19.773 45.0775 19.487 44.6715 19.21C44.2655 18.933 43.8545 18.66 43.4465 18.436C43.056 18.1737 42.6006 18.0242 42.1305 18.004L42.1416 18ZM42.1416 19.671C42.0736 19.671 42.3355 19.722 42.6465 19.893C42.9575 20.064 43.3465 20.317 43.7465 20.586C44.1465 20.855 44.5356 21.141 44.9156 21.386C45.2523 21.6479 45.6384 21.8392 46.0508 21.9485C46.4631 22.0578 46.8933 22.0828 47.3155 22.022C47.7665 22 48.2535 21.961 48.7295 21.922C49.2055 21.883 49.6655 21.858 50.0205 21.865C50.3755 21.872 50.6355 21.956 50.5765 21.922C50.5175 21.888 50.7265 22.068 50.9105 22.372C51.0945 22.676 51.3015 23.092 51.5105 23.521C51.7195 23.95 51.9165 24.394 52.1235 24.794C52.2981 25.1828 52.5345 25.5408 52.8235 25.854C53.1351 26.141 53.4915 26.3751 53.8785 26.547C54.2785 26.753 54.7315 26.963 55.1615 27.168C55.5915 27.373 56.0005 27.579 56.3045 27.768C56.6085 27.957 56.7885 28.153 56.7545 28.094C56.7205 28.035 56.8125 28.294 56.8195 28.649C56.8265 29.004 56.8005 29.464 56.7625 29.939C56.7245 30.414 56.6775 30.908 56.6565 31.357C56.612 31.7772 56.6366 32.2018 56.7295 32.614C56.8577 33.0201 57.0509 33.4027 57.3015 33.747C57.5455 34.126 57.8245 34.53 58.0935 34.922C58.3625 35.314 58.6165 35.695 58.7885 36.006C58.9605 36.317 59.0165 36.589 59.0165 36.521C59.0165 36.453 58.9595 36.721 58.7885 37.035C58.6175 37.349 58.3635 37.727 58.0935 38.119C57.8235 38.511 57.5445 38.919 57.3015 39.294C57.0347 39.6262 56.8396 40.0101 56.7284 40.4214C56.6173 40.8327 56.5924 41.2626 56.6555 41.684C56.6775 42.134 56.7245 42.62 56.7615 43.094C56.7985 43.568 56.8256 44.029 56.8186 44.384C56.8116 44.739 56.7185 44.997 56.7535 44.938C56.7885 44.879 56.6075 45.088 56.3035 45.272C55.9995 45.456 55.5905 45.662 55.1605 45.872C54.7305 46.082 54.2785 46.287 53.8775 46.493C53.4826 46.6511 53.1235 46.887 52.8215 47.1865C52.5195 47.4861 52.2808 47.8434 52.1195 48.237C51.9125 48.637 51.7125 49.089 51.5065 49.519C51.3005 49.949 51.0935 50.356 50.9065 50.661C50.7195 50.966 50.5135 51.145 50.5725 51.111C50.6315 51.077 50.3726 51.169 50.0166 51.176C49.6606 51.183 49.2005 51.156 48.7255 51.119C48.2505 51.082 47.7625 51.035 47.3115 51.014C46.8887 50.9521 46.4577 50.9772 46.045 51.088C45.6323 51.1987 45.2465 51.3927 44.9115 51.658C44.5315 51.901 44.1355 52.188 43.7425 52.458C43.3495 52.728 42.9585 52.981 42.6425 53.152C42.3265 53.323 42.0685 53.372 42.1375 53.372C42.2065 53.372 41.9375 53.323 41.6225 53.152C41.3075 52.981 40.9275 52.727 40.5355 52.458C40.1435 52.189 39.7355 51.902 39.3605 51.658C39.0254 51.393 38.6396 51.1992 38.227 51.0885C37.8143 50.9778 37.3834 50.9524 36.9606 51.014C36.5096 51.036 36.0225 51.083 35.5465 51.12C35.0705 51.157 34.6105 51.184 34.2555 51.177C33.9005 51.17 33.6405 51.077 33.6995 51.112C33.7585 51.147 33.5495 50.966 33.3655 50.662C33.1815 50.358 32.9745 49.95 32.7655 49.52C32.5565 49.09 32.3596 48.639 32.1526 48.239C31.9798 47.8528 31.7451 47.4974 31.4575 47.187C31.1437 46.9002 30.7853 46.6661 30.3965 46.494C29.9965 46.288 29.5436 46.078 29.1136 45.873C28.6836 45.668 28.2735 45.462 27.9695 45.273C27.6655 45.084 27.4865 44.88 27.5205 44.939C27.5545 44.998 27.4605 44.739 27.4535 44.385C27.4465 44.031 27.4735 43.57 27.5105 43.095C27.5475 42.62 27.5965 42.135 27.6185 41.685C27.6816 41.2636 27.6568 40.8337 27.5456 40.4224C27.4345 40.0111 27.2393 39.6272 26.9725 39.295C26.7285 38.916 26.4496 38.512 26.1806 38.119C25.9116 37.726 25.6575 37.346 25.4855 37.035C25.3135 36.724 25.2555 36.454 25.2555 36.521C25.2555 36.588 25.3145 36.321 25.4855 36.006C25.6565 35.691 25.9106 35.314 26.1806 34.922C26.4506 34.53 26.7295 34.122 26.9725 33.747C27.2231 33.4027 27.4163 33.0201 27.5445 32.614C27.6373 32.2018 27.6619 31.7772 27.6175 31.357C27.5955 30.907 27.5465 30.413 27.5095 29.939C27.4725 29.465 27.4455 29.004 27.4525 28.649C27.4595 28.294 27.5525 28.036 27.5195 28.094C27.4865 28.152 27.6635 27.952 27.9675 27.768C28.2715 27.584 28.6826 27.378 29.1116 27.168C29.5406 26.958 29.9935 26.753 30.3945 26.547C30.7922 26.3915 31.1534 26.1555 31.4556 25.8538C31.7577 25.5522 31.9943 25.1914 32.1505 24.794C32.3575 24.394 32.5575 23.95 32.7635 23.521C32.9695 23.092 33.1766 22.675 33.3636 22.372C33.5506 22.069 33.7565 21.888 33.6975 21.922C33.6385 21.956 33.8975 21.872 34.2535 21.865C34.6095 21.858 35.0695 21.885 35.5445 21.922C36.0195 21.959 36.5076 21.998 36.9586 22.022C37.3808 22.0824 37.8109 22.0573 38.2232 21.948C38.6355 21.8387 39.0216 21.6476 39.3585 21.386C39.7385 21.143 40.1415 20.856 40.5335 20.586C40.9255 20.316 41.3095 20.064 41.6205 19.893C41.9315 19.722 42.2035 19.671 42.1355 19.671H42.1416ZM42.1416 25.077C40.2298 25.0785 38.3489 25.5591 36.6708 26.4749C34.9926 27.3908 33.5709 28.7127 32.5354 30.3197C31.4999 31.9268 30.8837 33.7677 30.7432 35.6743C30.6027 37.5809 30.9423 39.4923 31.731 41.2338C32.5197 42.9753 33.7324 44.4913 35.2581 45.6433C36.7838 46.7953 38.5739 47.5464 40.4648 47.8281C42.3557 48.1098 44.2871 47.9131 46.0823 47.2559C47.8776 46.5987 49.4795 45.502 50.7415 44.066C52.5956 41.9897 53.6136 39.2995 53.5985 36.516C53.5927 33.4801 52.3825 30.5705 50.2335 28.4261C48.0845 26.2816 45.1725 25.0775 42.1365 25.078L42.1416 25.077ZM42.1416 26.748C44.0728 26.7516 45.9596 27.3275 47.5635 28.403C49.1675 29.4785 50.4167 31.0054 51.1533 32.7906C51.8898 34.5759 52.0806 36.5394 51.7016 38.433C51.3226 40.3267 50.3907 42.0655 49.0238 43.4297C47.657 44.7939 45.9163 45.7224 44.022 46.0977C42.1276 46.4731 40.1645 46.2784 38.3807 45.5384C36.5969 44.7984 35.0724 43.5463 34 41.9402C32.9276 40.3341 32.3553 38.4462 32.3555 36.515C32.3551 35.2311 32.608 33.9598 33.0996 32.7738C33.5911 31.5878 34.3118 30.5103 35.2204 29.6032C36.1289 28.6961 37.2074 27.977 38.3942 27.4873C39.581 26.9975 40.8527 26.7466 42.1365 26.749L42.1416 26.748ZM46.6465 32.595C46.4296 32.6015 46.2237 32.6923 46.0725 32.848L40.5725 38.419L38.2185 36.047C38.1423 35.9646 38.0502 35.8983 37.9478 35.8522C37.8454 35.806 37.7348 35.781 37.6225 35.7785C37.5102 35.776 37.3986 35.7962 37.2943 35.8378C37.1899 35.8793 37.095 35.9415 37.0152 36.0205C36.9354 36.0995 36.8723 36.1937 36.8297 36.2976C36.7871 36.4016 36.7658 36.513 36.7671 36.6253C36.7685 36.7376 36.7924 36.8485 36.8375 36.9513C36.8826 37.0542 36.9479 37.1469 37.0296 37.224L39.9805 40.193C40.0582 40.2719 40.1509 40.3346 40.253 40.3774C40.3552 40.4201 40.4648 40.4422 40.5755 40.4422C40.6863 40.4422 40.7959 40.4201 40.8981 40.3774C41.0002 40.3346 41.0928 40.2719 41.1705 40.193L47.2635 34.018C47.3814 33.8997 47.4611 33.7487 47.4923 33.5847C47.5235 33.4206 47.5048 33.2509 47.4386 33.0976C47.3724 32.9443 47.2617 32.8143 47.1208 32.7246C46.98 32.6348 46.8155 32.5893 46.6485 32.594L46.6465 32.595ZM54.9815 47.805L60.9245 58.083L54.7495 57.583C54.5798 57.5682 54.4096 57.6057 54.2618 57.6904C54.1139 57.7751 53.9956 57.9031 53.9225 58.057L51.2735 63.646L45.3265 53.385C45.4885 53.275 45.6715 53.147 45.8135 53.056C46.0243 52.9185 46.2456 52.7981 46.4755 52.696C46.7254 52.6715 46.9768 52.6661 47.2275 52.68C47.6215 52.699 48.1015 52.74 48.5925 52.78C49.0835 52.82 49.5815 52.847 50.0475 52.837C50.5186 52.8873 50.9936 52.7874 51.4045 52.5516C51.8154 52.3158 52.1413 51.9561 52.3356 51.524C52.5766 51.124 52.7935 50.678 53.0055 50.234C53.2175 49.79 53.4215 49.353 53.6055 49.003C53.7194 48.7783 53.8508 48.563 53.9985 48.359C54.2028 48.2111 54.4185 48.0797 54.6435 47.966C54.7375 47.918 54.8705 47.859 54.9765 47.808L54.9815 47.805ZM29.3695 47.836C29.4525 47.876 29.5595 47.924 29.6355 47.963C29.8604 48.0765 30.0758 48.2079 30.2796 48.356C30.4273 48.56 30.5587 48.7753 30.6725 49C30.8535 49.35 31.0565 49.787 31.2725 50.231C31.4885 50.675 31.7015 51.123 31.9425 51.521C32.1368 51.9531 32.4627 52.3128 32.8736 52.5486C33.2845 52.7844 33.7594 52.8843 34.2305 52.834C34.6955 52.844 35.1935 52.815 35.6855 52.777C36.1775 52.739 36.6565 52.698 37.0505 52.677C37.3012 52.6627 37.5527 52.668 37.8025 52.693C38.0326 52.7949 38.254 52.9153 38.4645 53.053C38.6245 53.153 38.8285 53.296 39.0125 53.422L33.0185 63.789L30.3625 58.189C30.2902 58.0365 30.1733 57.9095 30.0272 57.8249C29.8811 57.7403 29.7128 57.7019 29.5445 57.715L23.3635 58.22L29.3695 47.836Z" fill="#C48D35"/>
</svg>
