<svg xmlns="http://www.w3.org/2000/svg" width="51.32" height="13.676" viewBox="0 0 51.32 13.676">
  <path id="Icon_payment-paypal" data-name="Icon payment-paypal" d="M30.841,23.645H28.919a.555.555,0,0,0-.459.243l-2.651,3.9L24.687,24.04a.556.556,0,0,0-.532-.4H22.267a.333.333,0,0,0-.315.44l2.115,6.21L22.078,33.1a.333.333,0,0,0,.272.525h1.919a.558.558,0,0,0,.456-.238l6.389-9.222a.333.333,0,0,0-.274-.522ZM18,27.365a2.131,2.131,0,0,1-2.157,1.825,1.481,1.481,0,0,1-1.583-1.859A2.139,2.139,0,0,1,16.4,25.493a1.61,1.61,0,0,1,1.274.521A1.646,1.646,0,0,1,18,27.365Zm2.664-3.721H18.749a.333.333,0,0,0-.329.281l-.084.534-.133-.194a2.723,2.723,0,0,0-2.259-.8,4.4,4.4,0,0,0-4.267,3.845,3.607,3.607,0,0,0,.712,2.936,2.99,2.99,0,0,0,2.407.972,3.66,3.66,0,0,0,2.647-1.093l-.085.531a.333.333,0,0,0,.329.384h1.721a.554.554,0,0,0,.548-.468l1.034-6.544a.333.333,0,0,0-.329-.384ZM9.189,23.69c-.218,1.433-1.312,1.433-2.371,1.433h-.6l.422-2.675a.332.332,0,0,1,.328-.281h.277c.72,0,1.4,0,1.752.41a1.333,1.333,0,0,1,.194,1.113Zm-.46-3.739H4.737a.555.555,0,0,0-.548.469L2.575,30.656a.333.333,0,0,0,.328.384H4.81a.554.554,0,0,0,.548-.468l.436-2.762a.554.554,0,0,1,.548-.469H7.6c2.63,0,4.147-1.272,4.543-3.795a3.073,3.073,0,0,0-.509-2.576,3.7,3.7,0,0,0-2.909-1.02Zm42.656.281L49.747,30.656a.333.333,0,0,0,.328.384h1.648a.554.554,0,0,0,.548-.469l1.616-10.236a.333.333,0,0,0-.329-.384H51.714a.333.333,0,0,0-.329.281Zm-4.917,7.132a2.131,2.131,0,0,1-2.158,1.825,1.481,1.481,0,0,1-1.583-1.859,2.139,2.139,0,0,1,2.142-1.839,1.61,1.61,0,0,1,1.274.521,1.646,1.646,0,0,1,.324,1.352Zm2.664-3.721H47.22a.333.333,0,0,0-.329.281l-.084.534-.134-.194a2.721,2.721,0,0,0-2.258-.8,4.4,4.4,0,0,0-4.267,3.845,3.607,3.607,0,0,0,.712,2.937,2.99,2.99,0,0,0,2.407.972,3.66,3.66,0,0,0,2.647-1.093l-.085.531a.333.333,0,0,0,.329.384h1.721a.554.554,0,0,0,.548-.468l1.034-6.544a.333.333,0,0,0-.329-.384Zm-11.471.046c-.218,1.433-1.312,1.433-2.371,1.433h-.6l.422-2.675a.332.332,0,0,1,.328-.281h.277c.72,0,1.4,0,1.752.41a1.335,1.335,0,0,1,.193,1.113Zm-.46-3.739H33.209a.555.555,0,0,0-.548.469L31.046,30.656a.333.333,0,0,0,.328.384h2.048a.388.388,0,0,0,.383-.327l.458-2.9a.554.554,0,0,1,.548-.469h1.263c2.63,0,4.147-1.272,4.543-3.795a3.073,3.073,0,0,0-.509-2.576,3.7,3.7,0,0,0-2.909-1.02Z" transform="translate(-2.571 -19.952)" fill="#f8f8f8"/>
</svg>
