<svg width="85" height="85" viewBox="0 0 85 85" fill="none" xmlns="http://www.w3.org/2000/svg">
<g clip-path="url(#clip0_130_267)">
<path d="M64.579 48.739C63.3808 53.3896 60.7562 57.5482 57.0736 60.6307C53.3911 63.7133 48.8355 65.5651 44.0467 65.926C39.2578 66.287 34.4761 65.139 30.3731 62.6433C26.2701 60.1476 23.0517 56.4295 21.17 52.011L20.857 53.556C20.8032 53.7949 20.6581 54.0033 20.4527 54.1367C20.2474 54.27 19.998 54.3178 19.7579 54.2697C19.5177 54.2217 19.3059 54.0816 19.1677 53.8795C19.0294 53.6774 18.9757 53.4292 19.018 53.188L20.048 48.324C20.0947 48.1173 20.2092 47.9322 20.3733 47.798C20.5374 47.6639 20.7416 47.5885 20.9535 47.5838C21.1654 47.579 21.3727 47.6453 21.5426 47.772C21.7125 47.8987 21.8351 48.0786 21.891 48.283C23.0628 52.8233 25.7102 56.8454 29.417 59.717C33.1239 62.5887 37.68 64.147 42.369 64.147C47.058 64.147 51.6141 62.5887 55.321 59.717C59.0278 56.8454 61.6752 52.8233 62.847 48.283C62.8724 48.1638 62.9217 48.051 62.992 47.9514C63.0623 47.8518 63.1521 47.7676 63.256 47.7037C63.3598 47.6399 63.4755 47.5978 63.5961 47.5801C63.7167 47.5623 63.8397 47.5692 63.9575 47.6004C64.0754 47.6316 64.1857 47.6864 64.2817 47.7615C64.3777 47.8366 64.4575 47.9304 64.5161 48.0373C64.5748 48.1441 64.6112 48.2618 64.623 48.3831C64.6348 48.5044 64.6219 48.6269 64.585 48.743L64.579 48.739ZM20.718 38.399C20.7944 38.4081 20.8716 38.4081 20.948 38.399C21.157 38.4058 21.362 38.3412 21.5293 38.2157C21.6965 38.0903 21.816 37.9116 21.868 37.709C23.0401 33.1692 25.6876 29.1476 29.3943 26.2764C33.101 23.4051 37.6568 21.847 42.3455 21.847C47.0342 21.847 51.5899 23.4051 55.2967 26.2764C59.0034 29.1476 61.6509 33.1692 62.823 37.709C62.8284 37.8298 62.8576 37.9483 62.9089 38.0578C62.9601 38.1672 63.0324 38.2655 63.1217 38.3471C63.2109 38.4286 63.3153 38.4918 63.429 38.5329C63.5426 38.5741 63.6632 38.5925 63.784 38.587C63.9047 38.5816 64.0232 38.5524 64.1327 38.5012C64.2422 38.4499 64.3405 38.3776 64.422 38.2884C64.5036 38.1991 64.5667 38.0947 64.6079 37.9811C64.6491 37.8674 64.6674 37.7468 64.662 37.626L65.425 32.964C65.4443 32.8433 65.4396 32.7199 65.4113 32.601C65.3829 32.482 65.3313 32.3698 65.2596 32.2708C65.1879 32.1718 65.0974 32.0878 64.9932 32.0238C64.889 31.9597 64.7732 31.9169 64.6525 31.8975C64.5317 31.8782 64.4084 31.8829 64.2894 31.9113C64.1705 31.9397 64.0583 31.9912 63.9592 32.0629C63.8602 32.1346 63.7763 32.2252 63.7122 32.3294C63.6482 32.4335 63.6053 32.5493 63.586 32.67L63.411 33.746C61.4899 29.3682 58.2515 25.6982 54.1468 23.2471C50.0421 20.796 45.2752 19.6857 40.5099 20.0708C35.7446 20.4559 31.2179 22.3173 27.56 25.3957C23.9022 28.4741 21.2952 32.6165 20.102 37.246C20.0667 37.3619 20.0547 37.4836 20.0666 37.6042C20.0785 37.7247 20.1141 37.8417 20.1713 37.9485C20.2286 38.0552 20.3063 38.1496 20.4001 38.2263C20.4939 38.3029 20.602 38.3603 20.718 38.395V38.399ZM52.432 31.962C52.5528 31.9619 52.6725 31.9856 52.7842 32.0318C52.8959 32.078 52.9974 32.1458 53.0828 32.2312C53.1683 32.3167 53.236 32.4181 53.2822 32.5298C53.3284 32.6415 53.3521 32.7612 53.352 32.882V53.111C53.3521 53.2319 53.3284 53.3516 53.2822 53.4633C53.236 53.5749 53.1683 53.6764 53.0828 53.7619C52.9974 53.8473 52.8959 53.9151 52.7842 53.9613C52.6725 54.0075 52.5528 54.0312 52.432 54.031H32.203C31.959 54.031 31.725 53.9341 31.5525 53.7616C31.3799 53.589 31.283 53.355 31.283 53.111V32.882C31.283 32.638 31.3799 32.404 31.5525 32.2315C31.725 32.059 31.959 31.962 32.203 31.962H52.432ZM39.559 33.801V38.49C39.6975 38.4117 39.8509 38.363 40.0093 38.3471C40.1677 38.3313 40.3277 38.3486 40.479 38.398L42.391 39.317L44.303 38.398C44.4253 38.3406 44.5588 38.3108 44.694 38.3108C44.8291 38.3108 44.9626 38.3406 45.085 38.398V33.798L39.559 33.801ZM51.513 33.801H46.913V40.401C46.913 40.5768 46.8626 40.7489 46.7679 40.8969C46.6732 41.045 46.538 41.1628 46.3784 41.2364C46.2189 41.31 46.0415 41.3364 45.8674 41.3124C45.6933 41.2885 45.5297 41.2151 45.396 41.101L44.55 40.384L42.766 41.23C42.6413 41.2904 42.5045 41.3218 42.366 41.3218C42.2274 41.3218 42.0907 41.2904 41.966 41.23L40.182 40.311L39.217 41.157C39.0815 41.2656 38.9181 41.3337 38.7456 41.3536C38.5732 41.3734 38.3986 41.3443 38.2419 41.2694C38.0853 41.1945 37.9529 41.077 37.8601 40.9303C37.7672 40.7836 37.7176 40.6137 37.717 40.44V33.802H33.117V52.192H51.507L51.513 33.801Z" fill="#C48D35"/>
</g>
<defs>
<clipPath id="clip0_130_267">
<rect width="46.437" height="45.997" fill="white" transform="translate(19 20)"/>
</clipPath>
</defs>
</svg>
