<svg xmlns="http://www.w3.org/2000/svg" width="53.594" height="11.129" viewBox="0 0 53.594 11.129">
  <g id="rupay" transform="translate(0 0)">
    <path id="Path_5280" data-name="Path 5280" d="M402.787,208l4.61,3.986-9.7,3.992Z" transform="translate(-353.803 -206.418)" fill="#f8f8f8"/>
    <path id="Path_5281" data-name="Path 5281" d="M379.287,208l4.61,3.986-9.7,3.992Z" transform="translate(-333.508 -206.418)" fill="#fff"/>
    <path id="Path_5282" data-name="Path 5282" d="M-126.654,200.093h1.355a2.253,2.253,0,0,0,1.041-.177,1.022,1.022,0,0,0,.471-.621c.1-.3.074-.508-.066-.628a1.793,1.793,0,0,0-1.008-.177h-1.281Zm-4.546,4.894,2.794-8.587h4.463a4.715,4.715,0,0,1,2.8.579c.471.388.562,1.017.281,1.9a3.111,3.111,0,0,1-.793,1.306,3.729,3.729,0,0,1-1.4.819,1.21,1.21,0,0,1,.942.6,1.887,1.887,0,0,1-.05,1.306l-.339,1.2v.035c-.1.339-.066.516.091.53l-.1.318h-3.017c.008-.2.033-.381.05-.537a3.086,3.086,0,0,1,.074-.36l.281-.854c.141-.445.149-.756.017-.939s-.43-.275-.9-.275h-1.265l-.984,2.959Zm18.6-6.334-2.058,6.334h-2.5l.306-.925a4.887,4.887,0,0,1-1.347.826,3.72,3.72,0,0,1-1.422.275,2.566,2.566,0,0,1-1.05-.191,1.369,1.369,0,0,1-.653-.572,1.433,1.433,0,0,1-.165-.826,8.115,8.115,0,0,1,.4-1.631l1.066-3.291h2.736l-1.066,3.27a1.656,1.656,0,0,0-.116,1c.083.184.289.282.628.282a1.244,1.244,0,0,0,.876-.325,2.2,2.2,0,0,0,.57-.967l1.058-3.263h2.727Zm3.529,1.61h.967a3.215,3.215,0,0,0,1.314-.191,1.115,1.115,0,0,0,.529-.685c.107-.332.083-.558-.083-.685a2.275,2.275,0,0,0-1.2-.191h-.959Zm-4.521,4.724,2.785-8.587h3.835a10.831,10.831,0,0,1,1.967.134,2.629,2.629,0,0,1,1.1.438,1.724,1.724,0,0,1,.636,1,2.823,2.823,0,0,1-.141,1.412,4.077,4.077,0,0,1-1.636,2.21,5.228,5.228,0,0,1-2.9.763h-1.794l-.86,2.627Zm14.059-2.832a10.269,10.269,0,0,1-1.132.3c-.736.169-1.149.4-1.24.671a.383.383,0,0,0,.066.424.727.727,0,0,0,.521.148,1.87,1.87,0,0,0,1.091-.289,1.789,1.789,0,0,0,.62-.925c.025-.092.05-.155.058-.2Zm-.661,2.832.025-.6a5.187,5.187,0,0,1-1.339.628,4.956,4.956,0,0,1-1.43.2,2.091,2.091,0,0,1-1.628-.53,1.469,1.469,0,0,1-.149-1.49,2.364,2.364,0,0,1,1.074-1.391,7.042,7.042,0,0,1,2.579-.65c.149-.021.355-.035.612-.064.893-.085,1.389-.29,1.5-.621.058-.184.025-.318-.107-.4a1.363,1.363,0,0,0-.7-.127,1.419,1.419,0,0,0-.7.155.941.941,0,0,0-.422.48h-2.661a2.736,2.736,0,0,1,1.471-1.61,6.545,6.545,0,0,1,2.909-.544,7.124,7.124,0,0,1,1.521.141,2.408,2.408,0,0,1,.984.388,1.14,1.14,0,0,1,.463.685,2.431,2.431,0,0,1-.157,1.095l-1.149,3.531a.685.685,0,0,0-.025.311.339.339,0,0,0,.149.219l-.058.177h-2.752Zm2.769,2.5.6-1.878h.785a1.225,1.225,0,0,0,.612-.127.679.679,0,0,0,.306-.417.928.928,0,0,0,.058-.268,2.413,2.413,0,0,0,0-.346l-.422-5.8h2.769l-.041,3.842,2.413-3.842h2.57l-4.273,6.306c-.488.706-.835,1.186-1.058,1.455a3.139,3.139,0,0,1-.636.6,2.468,2.468,0,0,1-.876.4,6.622,6.622,0,0,1-1.455.12c-.19,0-.405,0-.636-.014s-.471-.014-.719-.028" transform="translate(131.2 -196.4)" fill="#f8f8f8"/>
  </g>
</svg>
