<svg width="85" height="85" viewBox="0 0 85 85" fill="none" xmlns="http://www.w3.org/2000/svg">
<path d="M20.527 43.9775H11.778C11.5717 43.9775 11.3738 44.0595 11.2279 44.2054C11.082 44.3513 11 44.5492 11 44.7556C11 44.9619 11.082 45.1598 11.2279 45.3057C11.3738 45.4516 11.5717 45.5335 11.778 45.5335H20.527C20.7333 45.5335 20.9312 45.4516 21.0771 45.3057C21.223 45.1598 21.305 44.9619 21.305 44.7556C21.305 44.5492 21.223 44.3513 21.0771 44.2054C20.9312 44.0595 20.7333 43.9775 20.527 43.9775Z" fill="#C48D35"/>
<path d="M19.5591 49.9585H18.6591C18.4528 49.9585 18.2549 50.0405 18.109 50.1864C17.9631 50.3323 17.8811 50.5302 17.8811 50.7365C17.8811 50.9428 17.9631 51.1407 18.109 51.2866C18.2549 51.4325 18.4528 51.5145 18.6591 51.5145H19.5591C19.7655 51.5145 19.9633 51.4325 20.1092 51.2866C20.2551 51.1407 20.3371 50.9428 20.3371 50.7365C20.3371 50.5302 20.2551 50.3323 20.1092 50.1864C19.9633 50.0405 19.7655 49.9585 19.5591 49.9585Z" fill="#C48D35"/>
<path d="M73.429 45.2725L65.856 36.9725H56.838V31.5645H37.502C36.8343 30.0637 35.7841 28.7647 34.4564 27.7975C33.1287 26.8303 31.5702 26.2289 29.937 26.0536C28.3038 25.8782 26.6532 26.1351 25.1504 26.7984C23.6477 27.4617 22.3457 28.5082 21.3747 29.8331C20.4037 31.158 19.7978 32.7148 19.6178 34.3475C19.4377 35.9802 19.6898 37.6315 20.3488 39.1362C21.0078 40.6408 22.0506 41.9459 23.3727 42.9207C24.6948 43.8955 26.2498 44.5058 27.882 44.6905V49.9585H22.045C21.8386 49.9585 21.6407 50.0405 21.4948 50.1864C21.3489 50.3323 21.267 50.5302 21.267 50.7365C21.267 50.9429 21.3489 51.1408 21.4948 51.2867C21.6407 51.4326 21.8386 51.5145 22.045 51.5145H27.882V55.8515H31.519C31.6453 56.7651 32.0979 57.602 32.7933 58.2079C33.4886 58.8137 34.3797 59.1474 35.302 59.1474C36.2242 59.1474 37.1153 58.8137 37.8106 58.2079C38.506 57.602 38.9586 56.7651 39.085 55.8515H60.826C60.9523 56.7651 61.4049 57.602 62.1003 58.2079C62.7956 58.8137 63.6867 59.1474 64.609 59.1474C65.5312 59.1474 66.4223 58.8137 67.1176 58.2079C67.813 57.602 68.2656 56.7651 68.392 55.8515H73.432V45.2725H73.429ZM21.113 35.3725C21.113 33.8251 21.5718 32.3124 22.4315 31.0258C23.2913 29.7391 24.5132 28.7363 25.9429 28.1441C27.3725 27.5519 28.9456 27.397 30.4633 27.6989C31.9811 28.0008 33.3752 28.7459 34.4694 29.8401C35.5636 30.9343 36.3087 32.3284 36.6106 33.8461C36.9125 35.3638 36.7576 36.937 36.1654 38.3666C35.5732 39.7963 34.5704 41.0182 33.2837 41.8779C31.9971 42.7377 30.4844 43.1965 28.937 43.1965C26.8633 43.1941 24.8753 42.3696 23.4086 40.9037C21.9419 39.4378 21.1164 37.4502 21.113 35.3765V35.3725ZM35.296 57.5895C34.8444 57.5895 34.403 57.4556 34.0276 57.2048C33.6522 56.9539 33.3595 56.5974 33.1867 56.1802C33.014 55.763 32.9687 55.304 33.0568 54.8611C33.1449 54.4183 33.3624 54.0115 33.6816 53.6922C34.0009 53.3729 34.4077 53.1555 34.8506 53.0674C35.2934 52.9793 35.7525 53.0245 36.1696 53.1973C36.5868 53.3701 36.9434 53.6627 37.1942 54.0382C37.4451 54.4136 37.579 54.855 37.579 55.3065C37.5795 55.9124 37.3394 56.4936 36.9115 56.9225C36.4835 57.3514 35.9028 57.5927 35.297 57.5935L35.296 57.5895ZM55.282 54.2945H38.982C38.7639 53.4839 38.2847 52.7679 37.6185 52.2572C36.9523 51.7466 36.1364 51.4698 35.297 51.4698C34.4576 51.4698 33.6416 51.7466 32.9754 52.2572C32.3092 52.7679 31.83 53.4839 31.612 54.2945H29.433V44.7245C30.8141 44.6585 32.1632 44.2863 33.3829 43.635C34.6026 42.9836 35.6622 42.0693 36.4852 40.9582C37.3083 39.8472 37.874 38.5671 38.1417 37.2106C38.4094 35.854 38.3722 34.4549 38.033 33.1145H55.282V54.2945ZM64.604 57.5895C64.1524 57.5895 63.711 57.4556 63.3356 57.2048C62.9602 56.9539 62.6675 56.5974 62.4947 56.1802C62.322 55.763 62.2767 55.304 62.3648 54.8611C62.4529 54.4183 62.6704 54.0115 62.9896 53.6922C63.3089 53.3729 63.7157 53.1555 64.1586 53.0674C64.6014 52.9793 65.0605 53.0245 65.4776 53.1973C65.8948 53.3701 66.2513 53.6627 66.5022 54.0382C66.7531 54.4136 66.887 54.855 66.887 55.3065C66.8872 55.6068 66.8283 55.9041 66.7136 56.1816C66.5989 56.459 66.4306 56.7112 66.2184 56.9236C66.0062 57.136 65.7542 57.3044 65.4768 57.4194C65.1995 57.5344 64.9022 57.5935 64.602 57.5935L64.604 57.5895ZM71.873 54.2945H68.289C68.0709 53.4839 67.5917 52.7679 66.9255 52.2572C66.2593 51.7466 65.4433 51.4698 64.604 51.4698C63.7646 51.4698 62.9486 51.7466 62.2824 52.2572C61.6162 52.7679 61.137 53.4839 60.919 54.2945H56.837V38.5265H65.168L71.868 45.8755L71.873 54.2945Z" fill="#C48D35"/>
<path d="M13.3739 38.2015H17.851C18.0573 38.2015 18.2552 38.1195 18.4011 37.9736C18.547 37.8277 18.629 37.6298 18.629 37.4235C18.629 37.2172 18.547 37.0193 18.4011 36.8734C18.2552 36.7275 18.0573 36.6455 17.851 36.6455H13.3739C13.1676 36.6455 12.9697 36.7275 12.8238 36.8734C12.6779 37.0193 12.5959 37.2172 12.5959 37.4235C12.5959 37.6298 12.6779 37.8277 12.8238 37.9736C12.9697 38.1195 13.1676 38.2015 13.3739 38.2015Z" fill="#C48D35"/>
<path d="M28.7969 36.5005C28.8361 36.5328 28.8783 36.5613 28.9229 36.5855C29.0179 36.6256 29.1199 36.6463 29.2229 36.6465H33.6969C33.9033 36.6465 34.1011 36.5645 34.247 36.4186C34.3929 36.2727 34.4749 36.0748 34.4749 35.8685C34.4749 35.6621 34.3929 35.4643 34.247 35.3184C34.1011 35.1725 33.9033 35.0905 33.6969 35.0905H29.9969V29.1535C29.9969 28.9471 29.915 28.7493 29.7691 28.6033C29.6232 28.4574 29.4253 28.3755 29.2189 28.3755C29.0126 28.3755 28.8147 28.4574 28.6688 28.6033C28.5229 28.7493 28.4409 28.9471 28.4409 29.1535V35.8685C28.4411 35.9715 28.4618 36.0735 28.5019 36.1685C28.526 36.2132 28.5545 36.2554 28.5869 36.2945C28.6101 36.3369 28.6372 36.3771 28.6679 36.4145C28.7056 36.446 28.7465 36.4735 28.7899 36.4965L28.7969 36.5005Z" fill="#C48D35"/>
</svg>
