<svg xmlns="http://www.w3.org/2000/svg" xmlns:xlink="http://www.w3.org/1999/xlink" width="19.121" height="19.833" viewBox="0 0 19.121 19.833">
  <defs>
    <clipPath id="clip-path">
      <rect id="Rectangle_9950" data-name="Rectangle 9950" width="19.121" height="19.833" fill="none"/>
    </clipPath>
  </defs>
  <g id="Group_19599" data-name="Group 19599" transform="translate(0 0)">
    <g id="Group_19598" data-name="Group 19598" transform="translate(0 0)" clip-path="url(#clip-path)">
      <path id="Path_6064" data-name="Path 6064" d="M10.322,18.366c-.222.09-.442.187-.657.292a.451.451,0,0,1-.418,0Q5.283,16.89,1.314,15.134a.389.389,0,0,1-.27-.415q.011-4.587,0-9.172c0-.031,0-.062,0-.093-.012-.143.039-.186.175-.12.175.083.352.159.529.237Q5.4,7.192,9.046,8.817a.9.9,0,0,0,.8.012q3.876-1.735,7.76-3.454c.232-.1.235-.1.235.156v4.11c0,.387,0,.775,0,1.161a.584.584,0,0,0,.279.552.51.51,0,0,0,.765-.506c0-2.074-.006-4.149.007-6.223a.7.7,0,0,0-.475-.729Q14.128,2,9.848.09a.883.883,0,0,0-.776,0Q4.791,2,.5,3.895a.754.754,0,0,0-.5.789C.01,6.425,0,8.167,0,9.907c0,1.765,0,3.529,0,5.295a.681.681,0,0,0,.458.7c1.058.458,2.109.932,3.162,1.4q2.756,1.226,5.512,2.453a.7.7,0,0,0,.623.007c.321-.154.652-.286.976-.435a.524.524,0,1,0-.412-.961M13.768,2.983q1.6.716,3.2,1.427a.529.529,0,0,1,.073.065c-.437.2-.85.382-1.264.567Q12.712,6.4,9.65,7.764a.4.4,0,0,1-.352.016C8.268,7.316,7.236,6.861,6.2,6.4c-.04-.018-.089-.028-.1-.109.373-.169.75-.34,1.129-.508l6.255-2.779a.315.315,0,0,1,.285-.022M2.128,4.328Q5.615,2.776,9.1,1.22a.751.751,0,0,1,.7-.01c.761.362,1.538.691,2.308,1.036a.355.355,0,0,1,.205.132l-1.671.746Q7.807,4.382,4.978,5.643a.524.524,0,0,1-.48.006c-.8-.363-1.6-.713-2.393-1.07-.067-.029-.153-.038-.188-.122.045-.086.137-.1.211-.128" transform="translate(0 0)" fill="#1a1818"/>
      <path id="Path_6065" data-name="Path 6065" d="M16.889,12.481h-.368A4.012,4.012,0,0,0,13.08,9.039V8.672a.528.528,0,0,0-1.055,0v.368a4.012,4.012,0,0,0-3.441,3.441H8.216a.527.527,0,1,0,0,1.054h.368a4.012,4.012,0,0,0,3.441,3.441v.368a.528.528,0,0,0,1.055,0v-.368a4.012,4.012,0,0,0,3.441-3.441h.368a.527.527,0,1,0,0-1.054m-4.337,3.477A2.95,2.95,0,1,1,15.5,13.009a2.953,2.953,0,0,1-2.949,2.949" transform="translate(1.704 1.805)" fill="#1a1818"/>
      <path id="Path_6066" data-name="Path 6066" d="M11.861,11.263a1.054,1.054,0,1,0,1.054,1.054,1.054,1.054,0,0,0-1.054-1.054" transform="translate(2.395 2.497)" fill="#1a1818"/>
    </g>
  </g>
</svg>
