<svg xmlns="http://www.w3.org/2000/svg" width="41.847" height="12.826" viewBox="0 0 41.847 12.826">
  <path id="Icon_simple-visa" data-name="Icon simple-visa" d="M30.417,13.008a8.7,8.7,0,0,0-3.034-.525c-3.348,0-5.71,1.688-5.728,4.106-.021,1.779,1.681,2.779,2.966,3.376,1.32.61,1.761.994,1.758,1.543-.009.832-1.055,1.208-2.026,1.208a7.167,7.167,0,0,1-3.193-.654l-.417-.194-.473,2.786a11.331,11.331,0,0,0,3.792.654c3.559,0,5.885-1.676,5.913-4.253.028-1.418-.889-2.493-2.826-3.379-1.175-.575-1.908-.961-1.908-1.545,0-.516.626-1.067,1.934-1.067a6.207,6.207,0,0,1,2.537.476l.314.141L30.5,12.99l-.082.017Zm8.688-.3H36.49a1.692,1.692,0,0,0-1.78,1.03L29.68,25.135h3.559l.711-1.866,4.342,0c.106.436.418,1.862.418,1.862h3.137Zm-22.262-.1h3.388l-2.118,12.43h-3.39L16.843,12.6ZM8.232,19.458l.352,1.726L11.9,12.711h3.59L10.151,25.117H6.57L3.641,14.61a.694.694,0,0,0-.314-.413A14.317,14.317,0,0,0,0,12.964L.044,12.7H5.5a1.419,1.419,0,0,1,1.54,1.053l1.189,5.707Zm26.691,1.268,1.351-3.477c-.017.035.279-.718.45-1.186l.232,1.072.783,3.587H34.923v0Z" transform="translate(0 -12.483)" fill="#f8f8f8"/>
</svg>
