<svg xmlns="http://www.w3.org/2000/svg" width="32" height="32" viewBox="0 0 32 32">
  <g id="Group_19254" data-name="Group 19254" transform="translate(-1335.46 -1873)">
    <circle id="Ellipse_229" data-name="Ellipse 229" cx="16" cy="16" r="16" transform="translate(1335.46 1873)" fill="#fff" opacity="0.23"/>
    <path id="whatsapp_1_" data-name="whatsapp (1)" d="M18.4,5.633A8.98,8.98,0,0,0,4.273,16.465L3,21.116l4.759-1.249a8.981,8.981,0,0,0,4.29,1.093h0A8.98,8.98,0,0,0,18.4,5.633m-6.35,13.812h0a7.446,7.446,0,0,1-3.8-1.041l-.272-.162-2.824.741.753-2.753-.177-.282a7.461,7.461,0,1,1,6.321,3.5m4.093-5.589c-.225-.113-1.327-.655-1.533-.73s-.354-.112-.5.112-.58.729-.711.879-.262.168-.486.056a6.127,6.127,0,0,1-1.8-1.113A6.757,6.757,0,0,1,9.86,11.506c-.131-.225-.014-.346.1-.458s.224-.262.336-.393a1.534,1.534,0,0,0,.224-.374.41.41,0,0,0-.019-.393c-.056-.113-.505-1.217-.692-1.666s-.366-.377-.5-.383-.28-.008-.429-.008a.826.826,0,0,0-.6.28,2.514,2.514,0,0,0-.785,1.871A4.369,4.369,0,0,0,8.407,12.3a10,10,0,0,0,3.832,3.387,13.266,13.266,0,0,0,1.279.473,3.082,3.082,0,0,0,1.413.089,2.308,2.308,0,0,0,1.514-1.066,1.877,1.877,0,0,0,.131-1.067c-.056-.094-.207-.151-.43-.263" transform="translate(1339.445 1876.942)" fill="#fff" fill-rule="evenodd" opacity="0.8"/>
  </g>
</svg>
