<svg xmlns="http://www.w3.org/2000/svg" width="32" height="32" viewBox="0 0 32 32">
  <g id="Group_12408" data-name="Group 12408" transform="translate(0.352 0.193)">
    <circle id="Ellipse_229" data-name="Ellipse 229" cx="16" cy="16" r="16" transform="translate(-0.352 -0.193)" fill="#fff" opacity="0.228"/>
    <path id="Icon_metro-youtube" data-name="Icon metro-youtube" d="M6.658,1.928,5.694,3.841,4.729,1.928H3.5l1.739,3.03.01-.006v2.33H6.14V4.952l.01.006,1.739-3.03Zm2.6,1.784a.452.452,0,0,1,.446.446V5.943a.446.446,0,1,1-.892,0V4.159a.452.452,0,0,1,.446-.446Zm0-.892A1.342,1.342,0,0,0,7.924,4.159V5.943a1.338,1.338,0,1,0,2.677,0V4.159A1.342,1.342,0,0,0,9.263,2.82Zm4.015,0V6.333c-.389.325-.892.52-.892-.636V2.82h-.892V5.878h0c.014.738.169,2.066,1.783.986v.418h.892V2.82h-.892Zm1.338,8.922a.447.447,0,0,0-.446.446v.446h.892v-.446a.447.447,0,0,0-.446-.446Zm-4.015.446v2.342c.3.3.892.335.892-.112V12.328C11.493,11.882,11.047,11.743,10.6,12.189Zm6.173-2.153A1.855,1.855,0,0,0,14.95,8.246c-.973-.048-3.2-.073-5.154-.073s-4.34.024-5.313.073a1.855,1.855,0,0,0-1.824,1.789c-.058,1.047-.088,1.427-.088,1.951s.029,1.309.088,2.356a1.855,1.855,0,0,0,1.824,1.789c.973.048,3.357.073,5.313.073s4.181-.024,5.154-.073a1.855,1.855,0,0,0,1.824-1.789q.073-1.309.073-2.356c0-.7-.024-1.078-.073-1.951ZM5.247,15.312H4.355V10.851H3.463V9.958H6.14v.892H5.247Zm3.569,0H7.924v-.418c-1.7.952-1.769.031-1.783-.707h0V11.743h.892V14.2c0,.539.5.487.892.162V11.743h.892Zm3.569-.9c0,.933-.955,1.2-1.784.479v.426H9.709V9.958H10.6v1.45c.892-.892,1.784-.558,1.784.335Zm3.569-1.772v.446H14.17v.892a.446.446,0,0,0,.892,0v-.446h.892v.446a1.338,1.338,0,0,1-2.677,0V12.189a1.338,1.338,0,0,1,2.677,0Z" transform="translate(6.221 6.863)" fill="#fff" opacity="0.8"/>
  </g>
</svg>
