<svg xmlns="http://www.w3.org/2000/svg" width="66" height="48" viewBox="0 0 66 48" version="1.1"><path d="M 27 6.828 C 21.683 7.144, 21.355 7.336, 17.141 12.573 C 14.744 15.553, 13.012 18.555, 13.292 19.245 C 13.572 19.935, 18.077 25.546, 23.304 31.713 L 32.807 42.926 42.988 30.917 C 54.412 17.442, 54.126 18.947, 46.808 10.831 C 43.877 7.579, 42.873 7.123, 38 6.831 C 34.975 6.649, 30.025 6.647, 27 6.828 M 24.100 9.750 C 24.155 10.713, 24.492 12.457, 24.850 13.628 C 25.450 15.592, 25.711 15.457, 28.240 11.878 L 30.981 8 27.490 8 C 24.795 8, 24.023 8.399, 24.100 9.750 M 37.685 11.916 C 39.233 14.070, 40.553 15.758, 40.617 15.666 C 40.682 15.575, 41.040 13.813, 41.413 11.750 L 42.091 8 38.480 8 L 34.870 8 37.685 11.916 M 29.218 13.539 L 25.937 18 32.516 18 L 39.096 18 36 13.500 C 34.297 11.025, 32.813 9.018, 32.702 9.039 C 32.591 9.060, 31.023 11.085, 29.218 13.539 M 42.662 13.697 C 42.332 15.731, 42.228 17.561, 42.431 17.764 C 42.633 17.967, 44.455 17.990, 46.478 17.816 L 50.157 17.500 47.329 13.786 C 45.773 11.744, 44.221 10.056, 43.881 10.036 C 43.540 10.016, 42.992 11.664, 42.662 13.697 M 18.434 14.250 L 15.690 17.500 19.445 17.816 C 21.511 17.990, 23.327 17.990, 23.482 17.816 C 24.084 17.139, 22.728 11, 21.975 11 C 21.537 11, 19.943 12.462, 18.434 14.250 M 16 19.544 C 16 20.149, 29.134 36, 29.634 36 C 29.808 36, 28.611 32.369, 26.975 27.932 C 25.339 23.494, 24 19.669, 24 19.432 C 24 19.194, 22.200 19, 20 19 C 17.800 19, 16 19.245, 16 19.544 M 29.216 28 C 30.937 32.950, 32.605 36.997, 32.923 36.994 C 33.240 36.990, 34.915 32.940, 36.644 27.994 L 39.788 19 32.937 19 L 26.086 19 29.216 28 M 38.761 27.250 L 36.097 35.500 40.159 31 C 42.394 28.525, 45.560 24.813, 47.195 22.750 L 50.168 19 45.796 19 L 41.424 19 38.761 27.250" stroke="none" fill="#8a3535" fill-rule="evenodd"/><path d="M 0 24.013 L 0 48.027 33.250 47.763 L 66.500 47.500 66.768 23.750 L 67.036 -0 33.518 -0 L 0 0 0 24.013 M 0.431 24.500 C 0.432 37.700, 0.574 42.962, 0.747 36.193 C 0.921 29.424, 0.920 18.624, 0.746 12.193 C 0.572 5.762, 0.431 11.300, 0.431 24.500 M 27 6.828 C 21.683 7.144, 21.355 7.336, 17.141 12.573 C 14.744 15.553, 13.012 18.555, 13.292 19.245 C 13.572 19.935, 18.077 25.546, 23.304 31.713 L 32.807 42.926 42.988 30.917 C 54.412 17.442, 54.126 18.947, 46.808 10.831 C 43.877 7.579, 42.873 7.123, 38 6.831 C 34.975 6.649, 30.025 6.647, 27 6.828 M 24.100 9.750 C 24.155 10.713, 24.492 12.457, 24.850 13.628 C 25.450 15.592, 25.711 15.457, 28.240 11.878 L 30.981 8 27.490 8 C 24.795 8, 24.023 8.399, 24.100 9.750 M 37.685 11.916 C 39.233 14.070, 40.553 15.758, 40.617 15.666 C 40.682 15.575, 41.040 13.813, 41.413 11.750 L 42.091 8 38.480 8 L 34.870 8 37.685 11.916 M 29.218 13.539 L 25.937 18 32.516 18 L 39.096 18 36 13.500 C 34.297 11.025, 32.813 9.018, 32.702 9.039 C 32.591 9.060, 31.023 11.085, 29.218 13.539 M 42.662 13.697 C 42.332 15.731, 42.228 17.561, 42.431 17.764 C 42.633 17.967, 44.455 17.990, 46.478 17.816 L 50.157 17.500 47.329 13.786 C 45.773 11.744, 44.221 10.056, 43.881 10.036 C 43.540 10.016, 42.992 11.664, 42.662 13.697 M 18.434 14.250 L 15.690 17.500 19.445 17.816 C 21.511 17.990, 23.327 17.990, 23.482 17.816 C 24.084 17.139, 22.728 11, 21.975 11 C 21.537 11, 19.943 12.462, 18.434 14.250 M 16 19.544 C 16 20.149, 29.134 36, 29.634 36 C 29.808 36, 28.611 32.369, 26.975 27.932 C 25.339 23.494, 24 19.669, 24 19.432 C 24 19.194, 22.200 19, 20 19 C 17.800 19, 16 19.245, 16 19.544 M 29.216 28 C 30.937 32.950, 32.605 36.997, 32.923 36.994 C 33.240 36.990, 34.915 32.940, 36.644 27.994 L 39.788 19 32.937 19 L 26.086 19 29.216 28 M 38.761 27.250 L 36.097 35.500 40.159 31 C 42.394 28.525, 45.560 24.813, 47.195 22.750 L 50.168 19 45.796 19 L 41.424 19 38.761 27.250" stroke="none" fill="#f1e8e8" fill-rule="evenodd"/></svg>